<?xml version="1.0" encoding="UTF-8" standalone="no"?>
<!-- Created with Inkscape (http://www.inkscape.org/) -->

<svg
   version="1.1"
   id="svg1"
   width="115.2"
   height="115.2"
   viewBox="0 0 115.2 115.2"
   sodipodi:docname="Cup Car.svg"
   inkscape:version="1.3 (0e150ed6c4, 2023-07-21)"
   xmlns:inkscape="http://www.inkscape.org/namespaces/inkscape"
   xmlns:sodipodi="http://sodipodi.sourceforge.net/DTD/sodipodi-0.dtd"
   xmlns="http://www.w3.org/2000/svg"
   xmlns:svg="http://www.w3.org/2000/svg">
  <defs
     id="defs1" />
  <sodipodi:namedview
     id="namedview1"
     pagecolor="#505050"
     bordercolor="#eeeeee"
     borderopacity="1"
     inkscape:showpageshadow="0"
     inkscape:pageopacity="0"
     inkscape:pagecheckerboard="0"
     inkscape:deskcolor="#505050"
     inkscape:zoom="7.1267363"
     inkscape:cx="56.758098"
     inkscape:cy="71.631667"
     inkscape:window-width="1920"
     inkscape:window-height="1017"
     inkscape:window-x="1912"
     inkscape:window-y="1072"
     inkscape:window-maximized="1"
     inkscape:current-layer="g1" />
  <g
     inkscape:groupmode="layer"
     inkscape:label="Image"
     id="g1">
    <path
       style="fill:#000000"
       d="M 9.7205943,77.49621 C 5.4266681,77.206664 4.4428027,76.835767 6.1095893,76.134936 L 7.1275326,75.706923 5.9087439,75.021925 C 4.3796625,74.162533 3.4721711,73.178202 3.7678605,72.699766 3.8927373,72.497711 4.0892224,70.062863 4.2044941,67.288993 l 0.209585,-5.043401 1.594714,-1.850559 c 4.6944449,-5.447592 6.7478059,-6.466828 15.5147129,-7.701113 2.024,-0.284957 4.811177,-0.801571 6.193727,-1.148031 1.38255,-0.34646 2.675327,-0.57606 2.872837,-0.510224 0.19751,0.06584 -1.869667,0.668177 -4.593727,1.338534 -2.72406,0.670357 -5.074121,1.327916 -5.222357,1.461242 -0.148237,0.133326 0.715763,0.172888 1.92,0.08792 l 2.18952,-0.154496 -2.24,1.156826 c -2.430853,1.255391 -2.267363,1.234668 1.6,-0.202811 2.525476,-0.938706 2.599673,-0.946567 5.501823,-0.582955 2.881984,0.361087 3.003184,0.348928 5.958525,-0.597752 3.278533,-1.050208 8.176424,-2.112591 11.333427,-2.458292 1.096577,-0.120078 1.924066,-0.331117 1.838865,-0.468974 -0.0852,-0.137858 -1.198399,-0.426933 -2.473775,-0.642389 -2.71237,-0.458215 -8.432216,-0.232573 -11.198865,0.441785 -1.012,0.24667 -1.84,0.37755 -1.84,0.290844 0,-0.08671 0.648,-0.728039 1.44,-1.425185 1.462099,-1.286991 1.814357,-2.31079 1.056,-3.069147 -0.298667,-0.298667 -0.01799,-0.384 1.263054,-0.384 1.488549,0 1.856551,-0.158861 3.823999,-1.65076 3.007076,-2.280239 6.776647,-4.024964 10.037259,-4.645689 1.484828,-0.282667 2.915688,-0.583613 3.179688,-0.668768 0.264,-0.08516 1.177316,-0.125435 2.029592,-0.08951 1.436124,0.06053 1.53413,0.0166 1.338436,-0.599978 -0.169952,-0.53547 -0.07441,-0.665295 0.48959,-0.665295 0.558012,0 0.626426,0.08955 0.335877,0.43964 -0.307297,0.370271 0.961437,0.466252 8.040818,0.608298 13.345965,0.267784 19.052165,1.777683 27.377193,7.244188 l 2.966448,1.947874 3.59103,0.0019 c 1.97506,0.0011 4.7942,0.09557 6.26477,0.210032 l 2.67375,0.208114 -0.18007,1.109617 c -0.099,0.610289 -0.24975,1.179306 -0.33493,1.264482 -0.0852,0.08518 -1.49533,-0.07127 -3.13368,-0.347669 -1.63835,-0.276395 -3.97167,-0.601947 -5.18514,-0.723451 -2.061588,-0.206423 -2.434001,-0.374783 -5.677094,-2.566491 -4.318555,-2.918514 -7.059756,-4.308758 -11.425348,-5.794547 -3.14693,-1.071028 -3.69638,-1.160731 -7.091243,-1.157706 -4.427984,0.0039 -6.050568,0.408598 -7.224654,1.801745 -1.449093,1.719465 -3.975346,7.207769 -3.975346,8.636471 v 1.259253 l -1.68,-0.206595 c -6.895913,-0.848012 -13.664769,-0.301643 -21.709441,1.752344 -2.716643,0.69362 -8.077905,2.551802 -7.893772,2.735935 0.06087,0.06087 1.184489,-0.229249 2.49694,-0.644701 6.075204,-1.923084 14.05946,-3.233221 21.426273,-3.51584 l 4.32,-0.165731 -3.36,0.433813 c -4.028646,0.520141 -7.945616,1.278699 -11.188172,2.166691 -2.687856,0.736085 -10.68295,3.777859 -10.475393,3.985416 0.07414,0.07414 0.550203,-0.02313 1.057912,-0.216159 0.507709,-0.19303 3.08368,-0.974787 5.72438,-1.737237 9.458317,-2.730902 15.059828,-3.552863 27.296621,-4.005488 4.699559,-0.173831 9.192652,-0.382809 9.984652,-0.464395 l 1.44,-0.148338 -1.394913,0.454051 c -1.676175,0.545603 -2.285087,1.008925 -2.285087,1.738725 0,0.447865 -0.83382,0.708415 -4.643241,1.45091 -2.553783,0.497758 -4.582851,0.965405 -4.509041,1.039215 0.07381,0.07381 1.623269,-0.08846 3.443241,-0.360611 5.348363,-0.799758 5.247146,-0.802256 5.116312,0.126227 -0.168737,1.197462 -0.643784,1.920529 -1.25853,1.9156 -0.815881,-0.0065 -8.090636,1.689171 -7.931103,1.848704 0.07545,0.07545 1.943114,-0.192886 4.150362,-0.596305 2.207248,-0.403418 4.098699,-0.647967 4.203224,-0.543442 0.104525,0.104524 0.09901,0.67532 -0.01226,1.268435 -0.196348,1.046623 -0.273702,1.094616 -2.625893,1.629205 -3.776515,0.858297 -7.496349,1.901189 -7.339764,2.057774 0.07815,0.07815 0.696628,-0.0053 1.374394,-0.185515 0.677766,-0.180185 2.783523,-0.60404 4.67946,-0.941902 l 3.44716,-0.614294 -0.209611,1.16087 c -0.115286,0.638478 -0.246447,1.204809 -0.29147,1.258513 -0.04502,0.0537 -1.993178,0.592963 -4.329234,1.198353 -2.336057,0.605389 -4.320117,1.17345 -4.409023,1.262356 -0.241895,0.241895 -0.13665,0.225528 4.105019,-0.638353 4.714591,-0.960199 4.459493,-0.950702 4.252274,-0.158295 -0.09229,0.352937 -0.0046,0.838366 0.194891,1.078732 0.297041,0.357912 -0.318864,0.62148 -3.402232,1.455936 -7.612031,2.060056 -7.622947,2.321446 -0.02981,0.71383 2.582318,-0.546728 6.807061,-1.205473 9.388319,-1.463878 2.757492,-0.276048 4.978938,-0.657055 5.385992,-0.923767 0.540157,-0.353924 0.935554,-1.433134 1.794601,-4.898248 0.605992,-2.44437 1.128821,-4.58831 1.161842,-4.76431 0.03302,-0.176 0.226097,-0.931398 0.429055,-1.678663 0.251712,-0.926767 0.267004,-1.549274 0.04811,-1.958288 -0.377564,-0.705486 -2.20032,-1.63349 -3.2714,-1.66554 -0.413401,-0.01237 -1.039638,-0.146249 -1.391638,-0.297508 -1.432072,-0.615383 12.737572,-0.291022 20.159999,0.461487 2.72981,0.276757 0.10419,-0.382357 -3.70159,-0.929218 l -3.338416,-0.479689 4.320006,0.147606 c 5.47601,0.187104 6.0202,0.340806 6.85744,1.936818 0.5683,1.083324 0.67709,1.953426 0.76469,6.115934 l 0.10213,4.852924 -1.82689,1.387076 c -1.00479,0.762891 -2.61427,1.819075 -3.57662,2.347075 -1.50071,0.823379 -1.83479,1.185009 -2.34749,2.541076 -0.32878,0.869591 -0.56526,1.606737 -0.52552,1.638102 0.0397,0.03136 1.77023,0.215075 3.84554,0.408247 7.52343,0.70029 6.02807,1.058217 -9.533286,2.281869 -45.903878,3.609608 -40.007242,3.293018 -63.039998,3.384614 -11.44,0.0455 -22.58331,-0.03753 -24.7629117,-0.184508 z M 36.242301,75.59215 c 3.956258,-0.327193 8.420127,-0.973085 8.205876,-1.187335 -0.07236,-0.07236 -1.336016,0.02867 -2.80812,0.224514 -1.472103,0.195845 -4.836551,0.54385 -7.476551,0.773344 -2.64,0.229494 -4.08,0.434465 -3.2,0.455492 0.88,0.02103 3.255458,-0.09868 5.278795,-0.266015 z m 22.979607,-1.191134 c 0.436596,-0.325965 1.163367,-1.092511 1.615048,-1.703435 l 0.821237,-1.110771 -0.947344,0.819633 c -1.272545,1.100993 -2.483218,1.580367 -3.991266,1.580367 -2.247865,0 -4.570756,-2.746776 -5.005554,-5.918976 -0.108633,-0.792563 -0.335454,-1.441024 -0.504047,-1.441024 -0.459974,0 0.03637,3.129353 0.760699,4.796014 1.160541,2.670391 2.972637,3.962541 5.20512,3.711614 0.688763,-0.07742 1.609511,-0.407456 2.046107,-0.733422 z M 18.963506,74.623705 C 13.274045,74.391758 11.237721,74.002582 10.03961,72.918197 9.5743133,72.497066 9.331805,72.40615 9.4192101,72.685609 c 0.2144252,0.685578 2.1242989,1.56685 4.1076639,1.895396 0.966148,0.160043 3.772633,0.283555 6.236632,0.274471 l 4.48,-0.01652 z m 6.96,-0.217479 c -0.308,-0.08049 -0.812,-0.08049 -1.12,0 -0.308,0.08049 -0.056,0.146343 0.56,0.146343 0.616,0 0.868,-0.06585 0.56,-0.146343 z m 43.119999,-0.08106 c 1.127211,-0.233155 0.986226,-0.269151 -1.181114,-0.301558 -1.353613,-0.02024 -2.550112,0.1072 -2.658886,0.2832 -0.239094,0.386862 2.006532,0.397598 3.84,0.01836 z m 20.732636,-1.618039 c 0.092,-0.351825 0.0368,-0.720323 -0.122678,-0.818886 -0.159477,-0.09856 -0.289958,0.189295 -0.289958,0.639682 0,0.980493 0.182381,1.0597 0.412636,0.179204 z m -2.812636,-3.19e-4 c 0.108774,-0.176 0.04527,-0.32 -0.141115,-0.32 -0.186387,0 -0.338885,0.144 -0.338885,0.32 0,0.176 0.0635,0.32 0.141114,0.32 0.07761,0 0.230112,-0.144 0.338886,-0.32 z M 58.22797,72.079765 c 1.179225,-0.719016 1.843833,-1.869672 2.133015,-3.692955 l 0.203014,-1.28 -0.622809,1.555535 c -0.742831,1.855302 -1.346395,2.574448 -2.594607,3.091475 -1.050129,0.434977 -2.0803,0.265669 -3.023077,-0.496843 -0.352,-0.284695 -0.424,-0.413824 -0.16,-0.286952 0.389531,0.187199 0.404609,0.149453 0.08,-0.200269 -0.653649,-0.704218 -0.47088,-1.494787 0.383326,-1.658079 0.580282,-0.110928 1.044445,0.119665 1.790706,0.889611 0.940293,0.970136 0.968041,1.062218 0.416674,1.382706 -0.324889,0.188845 -0.426659,0.347733 -0.226157,0.353085 0.200502,0.0054 0.665651,-0.242269 1.033665,-0.550269 l 0.669117,-0.56 -1.266913,-1.340369 c -0.720904,-0.762703 -1.354945,-1.19793 -1.471175,-1.009866 -0.112344,0.181777 -0.572782,0.260057 -1.023195,0.173955 -0.821388,-0.157018 -1.666048,0.374967 -1.666048,1.049314 0,0.770477 1.01096,2.254027 1.844022,2.706042 1.20197,0.652181 2.288168,0.613046 3.500442,-0.126121 z M 38.243506,71.512504 c -0.748,-0.06737 -1.972,-0.06737 -2.72,0 -0.748,0.06737 -0.136,0.122493 1.36,0.122493 1.496,0 2.108,-0.05512 1.36,-0.122493 z m 1.698838,-0.907857 c 0.57239,-0.462734 0.407596,-0.48801 -2.098838,-0.321918 -1.496,0.09913 -3.512,0.183313 -4.48,0.187063 -1.254896,0.0049 -1.622244,0.09584 -1.28,0.317018 0.264,0.17061 2.000477,0.312405 3.858839,0.3151 2.597972,0.0038 3.522392,-0.111152 3.999999,-0.497263 z m -32.8455036,0.06718 c -0.3822163,-0.329615 -1.8933333,-0.49811 -1.8933333,-0.211114 0,0.179354 0.456,0.326097 1.0133334,0.326097 0.5573333,0 0.9533333,-0.05174 0.8799999,-0.114983 z M 99.941227,69.817324 c 0.718543,-0.384549 1.593733,-1.94489 1.556293,-2.774623 -0.019,-0.419989 -0.12837,-0.345509 -0.40418,0.275127 -0.62743,1.411881 -1.526703,2.22041 -2.223599,1.999223 -0.410163,-0.130181 -0.551583,-0.07778 -0.40969,0.151811 0.327894,0.530544 -0.859956,0.04357 -1.336547,-0.547929 -0.597357,-0.741389 -0.495706,-1.654123 0.18422,-1.654123 0.666776,0 2.092839,1.376275 1.765374,1.70374 -0.118943,0.118943 -0.05676,0.21626 0.138188,0.21626 0.792474,0 0.707491,-0.720891 -0.207881,-1.763446 -0.567227,-0.646036 -1.055769,-0.965042 -1.177146,-0.76865 -0.11412,0.18465 -0.395396,0.263622 -0.625057,0.175492 -0.671785,-0.257788 -1.407766,0.809236 -1.105232,1.602365 0.547566,1.435509 2.462131,2.124981 3.845257,1.384753 z M 6.9096791,69.50191 c 0.7238311,-0.0095 -0.5908724,-0.62533 -1.3453543,-0.6302 -0.6486478,-0.0042 -0.699422,0.06711 -0.3487315,0.489663 0.2257479,0.27201 0.6151573,0.41601 0.8653542,0.32 0.250197,-0.09601 0.6231262,-0.176768 0.8287316,-0.179463 z m 31.3691639,0.121404 c 1.017605,-0.139478 1.484663,-0.354837 1.484663,-0.684573 0,-0.392638 -0.308844,-0.443981 -1.68,-0.279285 -0.924,0.110985 -2.868,0.203043 -4.32,0.204573 -2.410029,0.0025 -3.467069,0.379718 -2.08,0.742197 0.882217,0.230547 4.960885,0.241115 6.595337,0.01709 z M 62.695435,68.14681 c -0.08877,-0.22 -0.161403,-0.04 -0.161403,0.4 0,0.44 0.07263,0.62 0.161403,0.4 0.08877,-0.22 0.08877,-0.58 0,-0.8 z M 6.8035071,67.944115 c 0,-0.277158 -1.6517986,-0.727455 -1.8720433,-0.510337 -0.061624,0.06075 -0.017125,0.264033 0.098885,0.451742 0.253535,0.410228 1.7731579,0.460445 1.7731579,0.05859 z M 55.656039,66.48832 c -0.105846,-0.27583 -0.340967,-0.50151 -0.52249,-0.50151 -0.368162,0 -0.452263,1.051114 -0.111377,1.392 0.351297,0.351298 0.844502,-0.341583 0.633867,-0.89049 z m -35.646442,0.56859 c -0.216651,-0.08765 -0.648651,-0.09299 -0.96,-0.01186 -0.31135,0.08113 -0.134091,0.152852 0.393909,0.159374 0.528,0.0065 0.782741,-0.05986 0.566091,-0.147517 z m 21.508095,-0.464911 c 0.22635,-0.232342 -0.504539,-0.266044 -2.394186,-0.110398 -4.61871,0.380434 -5.694374,0.786844 -1.605814,0.606713 2.020802,-0.08903 3.820802,-0.312373 4,-0.496315 z m 56.485812,-0.871855 c 0,-0.416664 -0.380407,-0.693771 -0.689853,-0.502523 -0.33095,0.204539 -0.04558,0.769189 0.388739,0.769189 0.165613,0 0.301114,-0.12 0.301114,-0.266666 z M 30.963506,65.341675 c 4.845275,-0.345569 10.269297,-1.155379 11.04,-1.648279 0.33933,-0.217018 0.207618,-0.248751 -0.449436,-0.10828 -0.846719,0.181019 -4.279378,0.453828 -18.270564,1.452047 -2.64,0.188354 -5.015999,0.390374 -5.279999,0.448934 -1.159162,0.257122 8.90189,0.145005 12.959999,-0.144422 z m 31.54689,-2.134999 c -0.476812,-1.770746 -2.085284,-4.158567 -3.300274,-4.899349 -1.436772,-0.876002 -3.826295,-0.853602 -5.287657,0.04957 -0.61412,0.379547 -1.531117,1.343739 -2.03777,2.14265 -1.216226,1.917789 -1.182475,2.448639 0.0492,0.773822 2.006367,-2.728235 5.258546,-3.344621 7.62739,-1.44562 1.370022,1.098288 2.886085,3.680673 2.958325,5.039062 0.03837,0.721591 0.08469,0.787349 0.186483,0.264786 0.07449,-0.382368 -0.01358,-1.248582 -0.195696,-1.92492 z m 40.271664,-1.998802 c -0.90403,-2.10147 -2.51603,-3.541064 -3.965138,-3.541064 -1.151987,0 -2.767575,1.10758 -3.434448,2.354516 -0.275978,0.516029 -0.07368,0.428391 0.818348,-0.354516 0.910341,-0.798981 1.478796,-1.04 2.452895,-1.04 1.739623,0 3.701023,1.74845 4.244543,3.783718 0.21189,0.793424 0.42978,1.213197 0.48421,0.932829 0.0544,-0.280369 -0.21576,-1.241336 -0.60041,-2.135483 z M 8.0198106,62.453387 C 7.3687775,62.109561 6.6937456,61.575926 6.5197398,61.26753 6.2663386,60.818419 6.122965,60.786429 5.7994363,61.10681 c -0.5153326,0.51032 -0.035602,1.043322 1.4181751,1.575655 1.6217753,0.59385 2.1011873,0.456948 0.8021992,-0.229078 z M 19.076245,61.430339 c -0.08278,-0.133941 0.345989,-0.243529 0.95282,-0.243529 0.854389,0 1.093302,0.126352 1.058886,0.56 -0.03842,0.484074 0.302648,0.571354 2.515555,0.643743 1.526213,0.04993 2.388923,-0.02821 2.136356,-0.193498 -0.34282,-0.224349 -0.323197,-0.377689 0.102857,-0.803743 0.488669,-0.488669 0.105214,-0.528442 -5.336355,-0.553504 -3.224572,-0.01485 -6.681135,-0.129369 -7.681252,-0.254484 -1.000117,-0.125115 -1.747618,-0.112964 -1.661114,0.027 0.0865,0.139967 0.432262,0.254484 0.768351,0.254484 0.410411,0 0.550874,0.156873 0.427752,0.477724 -0.1233,0.321313 -0.460514,0.424473 -1.029957,0.315082 -0.717087,-0.137752 -0.748706,-0.116363 -0.206637,0.139787 0.982383,0.464217 2.079704,0.400523 2.284279,-0.132591 0.101306,-0.264 0.524268,-0.48 0.939914,-0.48 0.864916,0 0.762712,0.827853 -0.131439,1.064663 -0.293015,0.0776 0.331246,0.136225 1.387246,0.130271 1.056,-0.006 1.531897,-0.07005 1.057549,-0.142442 -1.201402,-0.183341 -0.813259,-1.052492 0.47002,-1.052492 0.538504,0 0.888164,0.09093 0.777023,0.202075 -0.111141,0.111141 -0.05171,0.483032 0.132067,0.826424 0.321507,0.600741 0.350259,0.602308 0.760365,0.04145 0.234423,-0.320593 0.358494,-0.692484 0.275714,-0.826425 z m 3.165238,0.316471 c 0.07222,-0.22 0.615088,-0.447127 1.206372,-0.504727 0.947734,-0.09232 1.025449,-0.04495 0.656173,0.4 -0.502914,0.605975 -2.055755,0.693288 -1.862545,0.104727 z m 9.698352,-0.389722 c 0.255019,-0.610347 0.463671,-1.196243 0.463671,-1.301991 0,-0.247151 -5.215007,0.180422 -5.478685,0.449191 -0.109277,0.111387 -0.292021,0.598522 -0.406097,1.082522 l -0.207411,0.88 h 2.582425 2.582425 z m -4.971429,0.389722 c 0.01035,-0.844639 0.546813,-1.109151 2.6351,-1.299271 1.923975,-0.17516 2.16,-0.135024 2.16,0.367312 0,0.994574 -0.705187,1.331959 -2.784,1.331959 -1.40208,0 -2.014508,-0.121809 -2.0111,-0.4 z m 11.066901,-0.118415 c 4.14167,-0.670156 4.755752,-0.870602 4.850032,-1.583127 0.176427,-1.333362 -0.202708,-1.418203 -4.091886,-0.915655 -2.018471,0.260821 -4.1375,0.62541 -4.708955,0.810198 -1.051967,0.340168 -2.000992,1.354082 -2.000992,2.137809 0,0.466497 0.548203,0.42512 5.951801,-0.449225 z M 10.44927,61.320638 c 0.398365,-1.038122 0.159079,-1.461022 -1.165763,-2.0603 -1.261782,-0.570754 -1.3888875,-0.576763 -1.7599999,-0.08319 -0.6222328,0.827552 -0.4842637,1.252853 0.64,1.97285 1.2472476,0.798758 2.0225229,0.856636 2.2857629,0.170643 z m 96.83424,-1.098911 c 0,-0.371547 -1.88846,-0.304836 -2.12322,0.075 -0.085,0.137543 0.35794,0.250079 0.98433,0.250079 0.62639,0 1.13889,-0.146287 1.13889,-0.325083 z M 63.59362,59.247695 c -1.595861,-3.086055 -4.352579,-4.784882 -7.746627,-4.773857 -2.15499,0.007 -4.524165,0.752692 -5.039229,1.586083 -0.129949,0.210261 0.244054,0.132178 0.837969,-0.174947 0.619418,-0.320314 2.020249,-0.602017 3.315221,-0.666681 1.961977,-0.09797 2.122442,-0.06607 1.282551,0.255005 -0.527999,0.201843 -1.247999,0.579674 -1.599999,0.839624 l -0.64,0.472636 0.64,-0.24386 c 0.352,-0.134124 1.443311,-0.311364 2.425136,-0.393867 2.23949,-0.188185 3.875149,0.573595 5.624895,2.6197 0.676483,0.79106 1.269666,1.443013 1.318186,1.448785 0.04852,0.0058 -0.139627,-0.430108 -0.418103,-0.968621 z m 39.47036,-1.943627 c -0.82937,-1.481543 -2.23347,-2.680889 -3.512043,-2.999896 -1.149581,-0.286826 -3.507921,0.783067 -4.32545,1.9623 -1.194989,1.723695 -1.18925,1.881084 0.02986,0.818902 2.716436,-2.366765 5.398463,-2.21432 7.408603,0.4211 1.1422,1.497507 1.30455,1.415158 0.39903,-0.202406 z m 5.15286,-0.157321 c 0.0733,-0.06596 -0.83516,-0.119937 -2.01888,-0.119937 -1.43449,0 -2.08232,0.113114 -1.9426,0.339185 0.18915,0.306043 3.58655,0.118013 3.96148,-0.219248 z m -0.77333,-2.682242 c -0.528,-0.145522 -1.99525,-0.316747 -3.26056,-0.380502 -1.84136,-0.09278 -2.23275,-0.03421 -1.96082,0.293446 0.23407,0.28204 1.24819,0.400385 3.26056,0.380501 2.13973,-0.02114 2.66409,-0.09962 1.96082,-0.293445 z M 37.523506,46.946811 c 0.326263,-0.393123 0.304395,-0.48 -0.120818,-0.48 -0.28555,0 -0.519182,0.216 -0.519182,0.48 0,0.264 0.05437,0.48 0.120818,0.48 0.06645,0 0.300081,-0.216 0.519182,-0.48 z m 19.688467,-5.538199 c -0.09852,-0.09852 -0.356734,-2.03e-4 -0.573801,0.218491 -0.313685,0.316037 -0.276929,0.352793 0.179134,0.179134 0.315591,-0.12017 0.493191,-0.299101 0.394667,-0.397625 z m 12.275065,-0.725439 c 0.57609,-0.425921 1.860973,-0.804261 3.587043,-1.056221 l 2.689424,-0.392584 -3.00916,-0.223779 c -4.281569,-0.318402 -14.11084,-0.277374 -14.11084,0.0589 0,0.155473 -0.288,0.357992 -0.64,0.450042 -0.352,0.09205 -0.64,0.06744 -0.64,-0.05468 0,-0.122124 -0.576,-0.245013 -1.28,-0.273086 -0.703999,-0.02807 -1.279999,0.07477 -1.279999,0.228538 0,0.15377 -0.252,0.345436 -0.56,0.425925 -0.308,0.08049 1.887999,0.17356 4.879999,0.206825 5.987798,0.06657 8.862149,0.360207 9.050263,0.924548 0.166076,0.498228 0.273819,0.474073 1.31327,-0.294427 z M 52.675133,40.1745 c 0.618115,-0.116916 0.806812,-0.27725 0.586077,-0.497985 -0.317267,-0.317267 -5.177704,0.541806 -5.177704,0.915149 0,0.163643 2.926832,-0.102269 4.591627,-0.417164 z M 27.123506,52.866811 c -0.471924,-0.202793 -0.206287,-0.280924 1.01149,-0.297509 0.908319,-0.01237 2.564319,-0.308634 3.68,-0.658363 1.152766,-0.361354 2.857409,-0.625118 3.94851,-0.610963 l 1.92,0.02491 -3.52,0.922715 c -3.535579,0.926799 -5.850396,1.130401 -7.04,0.61921 z m 38.890278,-1.427616 c -0.452596,-0.545344 -0.156002,-1.638202 1.349471,-4.972384 l 0.939176,-2.08 1.029259,3.52 c 0.566093,1.936 0.976336,3.628 0.911652,3.76 -0.224883,0.458915 -3.820373,0.265422 -4.229558,-0.227616 z m 5.597933,-0.252384 c -0.07243,-0.22 -0.639078,-2.123869 -1.259205,-4.23082 l -1.127504,-3.83082 0.655566,-0.697818 c 0.937962,-0.998415 2.937843,-1.400542 6.965253,-1.400542 h 3.518918 l 1.720843,2.8 c 2.788622,4.537393 3.840855,6.503728 3.605985,6.738598 -0.24385,0.24385 -8.769524,0.95484 -11.938111,0.995566 -1.343894,0.01727 -2.05369,-0.106729 -2.141745,-0.374164 z m 5.83066,-6.626869 c -1.003392,-1.342747 -1.685272,-1.933131 -2.232721,-1.933131 -0.513039,0 -0.446225,0.185889 0.45089,1.254454 0.579248,0.68995 1.300038,1.235859 1.601755,1.213132 0.438796,-0.03305 0.474832,-0.140008 0.180076,-0.534455 z m -41.198871,6.077599 c 0.792849,-0.264549 3.109711,-0.438379 2.853333,-0.21408 -0.07333,0.06416 -0.925333,0.198632 -1.893333,0.298832 -1.13618,0.117609 -1.476445,0.08757 -0.96,-0.08475 z m 4.32,0.0767 c 0.528,-0.07517 1.071366,-0.244162 1.20748,-0.375534 0.136114,-0.131371 0.711833,-0.170705 1.279375,-0.08741 0.882871,0.129578 0.939557,0.187487 0.392519,0.400989 -0.351656,0.137246 -1.359374,0.238084 -2.239374,0.224084 -1.007163,-0.01602 -1.244298,-0.0761 -0.64,-0.162132 z m 46.416766,-1.76743 c -0.330672,-0.572 -1.445194,-2.392526 -2.476716,-4.045612 -1.031522,-1.653087 -1.809668,-3.071438 -1.729213,-3.151893 0.176101,-0.176101 2.029121,0.399071 4.107213,1.274868 1.275548,0.537571 1.566763,0.825307 1.822987,1.801205 1.24088,4.726228 1.222161,5.161432 -0.222001,5.161432 -0.679907,0 -1.048605,-0.255244 -1.50227,-1.04 z m 2.798684,-1.92 c -0.339037,-1.452 -0.582011,-2.6892 -0.539942,-2.749333 0.204284,-0.292002 1.316472,0.690393 3.053625,2.697265 l 1.91477,2.212068 -0.901952,0.202139 c -0.496074,0.111177 -1.353779,0.219177 -1.906012,0.24 -1.0005,0.03773 -1.006243,0.02851 -1.620489,-2.602139 z m 3.424549,0.317949 c -0.968,-1.078606 -1.544,-1.833581 -1.28,-1.677722 0.264,0.155859 1.2,0.755426 2.079999,1.332372 2.992909,1.962211 3.308318,2.361088 1.84,2.326927 -0.659866,-0.01535 -1.320267,-0.511048 -2.639999,-1.981577 z"
       id="path1"
       sodipodi:nodetypes="sscssscssssssscsssssssssssssssssssssccsccssssscsscssssscssssssscsssssscsssssscscssssssssssssssssssscssscsssssssssssssssscsssssssssssscssssssssssssssssssssscsssssssscscsssssssssssscscsssssscsssssssssssssssssssscsssssssssssssssssscsssssssssssssssssssssssssssssssscsssssssssssssssssssssscssssssssssssssscccsssssssssssssssssssssssssssssscssscssssssssssssssssssssssssssscssssssssssssssssssscsssscssssscsscssssssssssssssssssssssssssssssscssssssss" />
  </g>
</svg>
