<?xml version="1.0" encoding="UTF-8" standalone="no"?>
<!-- Created with Inkscape (http://www.inkscape.org/) -->

<svg
   version="1.1"
   id="svg1"
   width="607"
   height="392"
   viewBox="0 0 607 392"
   sodipodi:docname="OpenWheelCar.svg"
   inkscape:version="1.3 (0e150ed6c4, 2023-07-21)"
   xmlns:inkscape="http://www.inkscape.org/namespaces/inkscape"
   xmlns:sodipodi="http://sodipodi.sourceforge.net/DTD/sodipodi-0.dtd"
   xmlns="http://www.w3.org/2000/svg"
   xmlns:svg="http://www.w3.org/2000/svg">
  <defs
     id="defs1" />
  <sodipodi:namedview
     id="namedview1"
     pagecolor="#505050"
     bordercolor="#eeeeee"
     borderopacity="1"
     inkscape:showpageshadow="0"
     inkscape:pageopacity="0"
     inkscape:pagecheckerboard="0"
     inkscape:deskcolor="#505050"
     inkscape:zoom="1.6820428"
     inkscape:cx="303.5"
     inkscape:cy="195.89275"
     inkscape:window-width="1920"
     inkscape:window-height="1017"
     inkscape:window-x="1912"
     inkscape:window-y="1072"
     inkscape:window-maximized="1"
     inkscape:current-layer="g1" />
  <g
     inkscape:groupmode="layer"
     inkscape:label="Image"
     id="g1">
    <path
       style="fill:#000000"
       d="m 120.5,298.93773 c -36.150995,-1.22011 -52,-3.32257 -52,-6.89812 0,-1.99939 6.792008,-3.80434 19.728841,-5.24285 5.924138,-0.65873 10.765996,-1.44498 10.759686,-1.74723 -0.0063,-0.30224 -1.889941,-1.44953 -4.185847,-2.54953 -3.864487,-1.85153 -6.232499,-2 -31.898626,-2 -15.248339,0 -28.053833,-0.32663 -28.456654,-0.72583 -1.599802,-1.58546 2.098252,-3.71154 12.332496,-7.09018 5.896057,-1.94647 14.024604,-4.21365 18.063437,-5.03818 4.038833,-0.82453 7.527498,-1.68331 7.752589,-1.9084 0.225092,-0.22509 -0.549294,-3.07059 -1.720857,-6.32333 -3.028897,-8.40947 -3.744049,-27.41055 -1.424131,-37.83814 3.395247,-15.26099 12.474005,-28.46378 23.369307,-33.98485 8.875049,-4.49733 15.883809,-5.56014 36.773209,-5.57631 16.31896,-0.0126 19.91295,0.26717 24.73308,1.92554 9.50879,3.2715 17.85964,10.13447 23.54933,19.3535 2.17483,3.52388 2.49379,3.69543 4.48278,2.41089 11.66028,-7.53049 34.86115,-19.78706 45.4868,-24.02979 3.46461,-1.38339 4.19386,-2.08373 3.59762,-3.45501 -0.41131,-0.94595 -0.95349,-3.18241 -1.20485,-4.96991 C 229.84282,170.4383 229.39136,170 226.89059,170 224.06125,170 224,169.88597 224,164.61892 v -5.38108 l 9.45049,-0.70853 c 5.19778,-0.3897 9.92278,-0.41665 10.5,-0.0599 0.57723,0.35675 1.04951,3.32208 1.04951,6.58962 V 171 h -4.5 c -3.73551,0 -4.5,0.31897 -4.5,1.87756 0,3.92943 2.18722,4.14816 10.91941,1.09195 4.59045,-1.60662 11.05937,-3.4549 14.3754,-4.10729 3.31602,-0.65239 6.74375,-1.9484 7.61716,-2.88003 0.87342,-0.93163 3.10437,-3.35206 4.95768,-5.37875 3.67422,-4.01794 8.74961,-6.95322 13.97333,-8.08128 1.83863,-0.39705 11.19781,-1.02298 20.79816,-1.39095 12.9711,-0.49716 17.66882,-1.0147 18.28679,-2.0146 0.45738,-0.74006 1.1023,-3.32049 1.43314,-5.73428 0.83782,-6.11251 4.13214,-12.10259 7.92927,-14.41782 4.70677,-2.86987 20.5641,-2.83562 25.24044,0.0545 3.83042,2.36733 6.75754,8.09157 8.42766,16.48098 2.4749,12.43209 2.91631,13.5 5.5801,13.5 2.45317,0 2.46146,-0.0341 2.46146,-10.12244 0,-9.0982 0.15935,-9.9902 1.57486,-8.81543 1.39236,1.15555 14.42514,20.258 14.42514,21.14325 0,0.19111 -1.75044,0.18054 -3.88987,-0.0235 -7.32534,-0.69858 -7.78998,0.34182 -1.16596,2.61077 3.5443,1.21404 6.78532,2.20734 7.20228,2.20734 0.41697,0 0.89209,-2.8125 1.05583,-6.25 L 397.5,154.5 h 6.25203 c 3.68975,0 6.11572,-0.4064 5.91945,-0.99163 -0.6791,-2.02491 -17.04995,-14.45952 -23.49702,-17.84735 -11.92109,-6.26434 -21.41347,-8.92032 -32.97423,-9.22621 -6.16581,-0.16315 -10.88184,-0.7556 -11.75,-1.47611 -2.17711,-1.80685 -1.84911,-9.83652 0.54977,-13.4587 1.09275,-1.65 1.98979,-2.3824 1.99341,-1.62756 0.005,0.9825 0.36175,1.07872 1.25659,0.33866 1.93053,-1.59661 6.69685,-0.22185 8.43663,2.4334 1.11599,1.7032 1.42231,3.86989 1.06819,7.55538 -0.44978,4.68091 -0.36008,4.98533 0.95282,3.23374 1.88388,-2.51337 1.14667,-9.83213 -1.25804,-12.48931 -0.98281,-1.086 -3.17353,-2.37715 -4.86827,-2.86924 l -3.08133,-0.89469 3,-0.0804 c 7.37667,-0.19775 17.24692,7.21645 21.6478,16.26108 1.75356,3.6039 2.90568,4.50353 8.9122,6.9591 9.04828,3.6991 19.95867,10.89487 28.1805,18.586 4.80589,4.49567 7.62908,6.36072 10.27953,6.79082 2.01248,0.32658 3.92746,1.31401 4.26273,2.198 0.33481,0.88277 2.56804,4.27245 4.96273,7.53262 2.3947,3.26017 6.84979,10.80681 9.90019,16.77032 3.05041,5.9635 7.56591,13.58632 10.03445,16.93959 4.14965,5.63689 4.7271,6.05834 7.65407,5.58624 1.74119,-0.28084 10.26351,-1.33559 18.93849,-2.34388 l 15.77269,-1.83325 5.47661,-6.19941 c 3.63931,-4.11962 7.40586,-7.14677 11.22731,-9.0233 5.61058,-2.75508 6.21931,-2.83184 24.98255,-3.15012 15.19634,-0.25778 20.35559,4.4e-4 24.58717,1.23059 7.56902,2.20038 13.79191,7.99894 18.14844,16.91096 5.30188,10.84589 6.8792,18.28541 6.82377,32.18468 -0.0564,14.13808 -2.26714,23.85568 -7.8397,34.46029 -3.47224,6.60768 -9.62055,13.93258 -11.8682,14.13939 -3.68555,0.33912 5.33904,1.73852 12.41667,1.9254 7.90472,0.20871 8.14983,0.27591 3.5,0.95953 -2.75,0.4043 -14.9,1.04878 -27,1.43217 -23.3729,0.74058 -60.49944,2.99369 -116,7.03974 -56.46389,4.11628 -81.37939,5.50711 -117,6.53118 -38.46697,1.10589 -163.69381,1.07413 -197,-0.05 z M 314.55011,287.08109 C 313.5958,285.53698 301.67073,279.20807 293.70757,276.01946 274.59956,268.36824 263.30059,267.24368 193,265.99624 c -52.41784,-0.93011 -93.927849,-0.21652 -112.508375,1.93412 -11.020701,1.27561 -21.701896,3.1927 -21.106368,3.78823 0.271861,0.27186 7.608626,-0.0437 16.303923,-0.70126 19.984541,-1.51127 101.599,-1.587 130.50875,-0.1211 33.93104,1.72051 66.85013,6.47266 93.52542,13.50118 14.22897,3.7491 15.64347,4.00513 14.82676,2.68368 z M 216.5,283.37061 c 18.15,-0.37607 31.875,-1.02376 30.5,-1.43931 -2.70907,-0.81872 -46.26396,-2.96005 -59.84563,-2.94224 -6.82286,0.009 -8.87557,0.38829 -11.25,2.07903 -4.41038,3.14047 -3.68257,4.24952 2.34563,3.57432 2.8875,-0.32342 20.1,-0.89573 38.25,-1.2718 z m 284,-1.18735 10,-0.70811 -5.59604,-2.61177 -5.59603,-2.61176 -32.40397,1.32851 c -17.82218,0.73068 -38.63595,1.34907 -46.25283,1.37419 -10.59954,0.035 -14.64687,0.42436 -17.25,1.65962 -1.87062,0.88767 -3.40134,1.90017 -3.4016,2.25 -6.2e-4,0.83144 87.51712,0.2387 100.50047,-0.68068 z m -115.83194,-8.11965 c 15.42056,-7.00153 24.66797,-32.66086 19.89169,-55.19468 -5.60233,-26.43101 -26.84826,-36.57455 -41.84292,-19.97725 -14.86738,16.45641 -16.41569,48.39029 -3.21584,66.32651 3.83341,5.20891 6.64506,7.35557 12.25809,9.35888 5.11114,1.82418 8.01481,1.70869 12.90898,-0.51346 z M 370.25,267.96884 c -1.2375,-0.49742 -2.25,-1.58851 -2.25,-2.42466 0,-2.05237 6.04797,-20.82954 6.54798,-20.32954 0.21779,0.21779 3.06792,4.6461 6.33362,9.84067 6.49819,10.33634 6.51527,11.18457 0.26016,12.922 -4.37284,1.2146 -7.85565,1.21189 -10.89176,-0.008 z m -9.97298,-8.58713 C 357.70087,255.32559 354,245.624 354,242.92691 c 0,-0.39055 1.2375,-0.99937 2.75,-1.35294 5.09705,-1.19149 8.25,-2.80813 8.25,-4.23009 0,-0.77741 1.3716,0.1487 3.04801,2.05802 2.49862,2.84577 2.84811,3.79833 1.93896,5.28479 -0.60997,0.99732 -2.34663,5.81008 -3.85924,10.69502 l -2.7502,8.88171 z m 25.31744,-7.63938 C 383.06751,246.6506 381,241.2506 381,239.74233 V 237 h 9 c 8.77301,0 9,0.0591 9,2.34345 0,3.9571 -6.88628,21.65655 -8.42586,21.65655 -0.21187,0 -2.45272,-4.16595 -4.97968,-9.25767 z m -15.53868,-12.68655 c -2.81485,-2.81485 -3.45914,-7.85645 -1.66828,-13.05444 1.73324,-5.03078 1.95466,-4.71797 -6.1375,-8.67091 C 359.3625,215.91992 357,214.57561 357,214.34309 357,211.64158 366.97656,198 368.95227,198 c 0.39574,0 0.50725,4.77316 0.24779,10.60703 -0.51288,11.53197 -0.18468,12.34813 4.97736,12.37766 1.71411,0.01 3.45145,0.99933 4.82875,2.75028 1.95713,2.48809 2.24013,2.5763 3.13501,0.97724 0.54103,-0.96676 3.76728,-4.86698 7.16946,-8.66715 4.69624,-5.24563 6.37974,-6.5628 6.99131,-5.46999 1.14749,2.05045 3.66007,14.34635 3.68069,18.01231 l 0.0174,3.08738 -8.75,-1.31578 c -4.8125,-0.72368 -9.0875,-1.3255 -9.5,-1.33738 -0.4125,-0.0119 -0.75,1.67827 -0.75,3.75589 0,2.07763 -0.70052,4.77763 -1.5567,6 -1.96535,2.80593 -6.71896,2.94685 -9.38752,0.27829 z m 8.01158,-3.18165 c 1.78857,-3.34197 1.53582,-8.55014 -0.52547,-10.82784 C 375.23675,222.49914 374.50695,222.49305 372,225 c -2.2815,2.2815 -2.79179,9.80821 -0.8,11.8 1.91053,1.91053 5.61679,1.41084 6.86736,-0.92587 z m -24.69603,-2.95931 c 0.36999,-2.97815 0.93471,-7.29942 1.25494,-9.60283 l 0.58222,-4.188 5.42373,2.66004 5.42373,2.66005 -0.65539,4.52796 c -0.84749,5.85518 -0.79492,5.78779 -5.50533,7.05617 -2.21118,0.59541 -4.73499,1.35681 -5.60847,1.69199 -1.37793,0.52876 -1.4991,-0.10731 -0.91543,-4.80538 z m 20.29534,-14.58149 C 373.3,217.96667 373,212.82199 373,206.90072 c 0,-9.8075 0.17416,-10.82122 1.95629,-11.38685 3.6377,-1.15456 8.96352,0.6634 13.41025,4.57757 l 4.40304,3.87571 -7.15946,7.51642 c -6.62109,6.95123 -9.93908,8.85414 -11.94345,6.84976 z m 180.91316,55.79583 c -0.29602,-0.47896 -1.97966,-1.15913 -3.74144,-1.51148 -6.9144,-1.38288 -14.84557,-13.42188 -16.3894,-24.87803 -0.50456,-3.74415 -0.29727,-3.46547 1.77358,2.38436 6.24163,17.63166 16.18817,22.68456 25.99179,13.20398 8.37921,-8.10308 12.31979,-20.75922 11.46667,-36.82799 -0.78897,-14.86034 -5.08179,-25.15785 -12.59989,-30.22431 -9.46684,-6.3797 -20.94489,1.94411 -26.34131,19.10255 -1.89711,6.03204 -2.23567,9.34045 -2.21262,21.62176 0.0237,12.62639 0.31546,15.22093 2.258,20.07935 2.82858,7.07444 8.44305,13.66537 13.65898,16.03452 4.36363,1.98202 7.00304,2.41878 6.13564,1.01529 z m -2.73847,-11.12391 c 3.99503,-0.94457 9.60087,-6.08304 12.25572,-11.23393 5.04197,-9.78234 6.10455,-26.26737 2.4697,-38.315 -1.67961,-5.56699 -7.5257,-13.11 -11.26153,-14.53037 -3.86611,-1.46989 -8.8164,1.23376 -12.29119,6.71293 -1.65773,2.61397 -3.01406,4.2821 -3.01406,3.70694 0,-2.03189 5.99994,-9.29443 8.93062,-10.80994 3.95035,-2.04281 6.90879,-1.9312 10.7405,0.40519 9.31464,5.67961 13.83523,26.14455 9.74632,44.12213 -2.65568,11.67611 -10.68797,21.06962 -17.81532,20.83444 L 548.5,263.79528 Z M 542.17691,253.75 C 539.0124,248.57198 537,240.22732 537,232.28332 c 0,-6.9605 0.10342,-7.29834 1.93426,-6.3185 1.06384,0.56935 2.18884,1.03518 2.5,1.03518 1.27905,0 0.42768,-2.51806 -1.57051,-4.64503 l -2.13626,-2.27394 2.51943,-5.32112 c 1.38569,-2.92661 3.17495,-5.86514 3.97614,-6.53007 1.54015,-1.27821 1.54133,-1.29693 -0.72664,11.52016 -0.49867,2.81812 -0.39195,4.25 0.31675,4.25 1.83807,0 2.49081,-2.08372 3.208,-10.24078 0.99535,-11.32075 4.3302,-13.65641 9.72164,-6.80882 3.9247,4.9847 3.7879,5.39487 -3.69731,11.08542 -3.87502,2.94595 -7.0455,5.66295 -7.0455,6.03778 0,0.37483 0.66494,1.23336 1.47765,1.90785 1.21769,1.01059 2.6048,0.32943 7.88481,-3.87201 6.12835,-4.87648 6.43336,-5.00067 7.0087,-2.85389 0.33084,1.23445 0.60768,5.23267 0.61519,8.88494 l 0.0136,6.64048 -5.25,-1.50433 c -2.8875,-0.82738 -5.6775,-1.9031 -6.2,-2.39048 -1.61496,-1.50643 -2.71455,-0.97998 -2.08647,0.99893 0.41933,1.3212 -0.30834,2.64799 -2.43261,4.43544 -1.66701,1.40269 -3.03092,2.9863 -3.03092,3.51912 0,0.53282 1.12186,4.27438 2.49303,8.31456 3.05497,9.00158 3.05341,8.84579 0.0885,8.84579 -1.6544,0 -3.04593,-1.02675 -4.40465,-3.25 z m -0.13166,-18.19547 c -1.82571,-2.19985 -2.91211,-1.93319 -3.62034,0.88863 -0.95255,3.79526 0.45152,5.12485 2.86414,2.71223 1.70735,-1.70735 1.83262,-2.30386 0.7562,-3.60086 z m 4.90456,-0.99406 c 0.65709,-0.79174 1.04969,-2.70424 0.87245,-4.25 C 547.54885,227.926 547.04527,227.5 544.5,227.5 c -2.67556,0 -2.97834,0.30688 -2.79974,2.8376 0.19901,2.81999 1.85541,5.6624 3.29974,5.6624 0.41531,0 1.29273,-0.64779 1.94981,-1.43953 z m 2.80019,14.48144 c -0.9625,-3.27542 -1.75,-7.3248 -1.75,-8.99861 0,-2.65908 0.34719,-3.04029 2.75,-3.01944 3.0093,0.0261 10.12346,1.51627 10.8878,2.28061 1.32994,1.32994 -7.34192,15.69858 -9.47183,15.69414 -0.36628,-7.6e-4 -1.45347,-2.68127 -2.41597,-5.9567 z m -31.97955,22.38484 c 2.78214,-1.8107 5.14048,-4.36465 5.19775,-5.62887 0.0175,-0.38617 -2.13477,0.42194 -4.7828,1.79578 -4.32339,2.24306 -5.29287,2.39073 -9.50227,1.44738 -2.57822,-0.57779 -23.44736,-1.5091 -46.37586,-2.06958 -22.9285,-0.56047 -41.93998,-1.27718 -42.24773,-1.59269 -0.6059,-0.62117 62.0195,0.35222 75.94046,1.18035 l 8.5,0.50565 -5.5,-2.83248 c -3.025,-1.55786 -10.88696,-6.14672 -17.47102,-10.19746 -13.10823,-8.06464 -34.02189,-18.78361 -42.27898,-21.66942 -2.8875,-1.00917 -5.25,-2.16665 -5.25,-2.57219 0,-0.40554 2.54962,-1.47855 5.66583,-2.38445 4.8175,-1.40049 6.72209,-1.47266 12.7205,-0.48205 12.27467,2.02712 18.33578,5.83059 34.77256,21.82051 10.50359,10.21803 16.17291,14.96518 20,16.74679 C 512.79299,268.11686 516,268.66313 516,267 c 0,-0.55 -0.8119,-1 -1.80422,-1 -3.10139,0 -10.85877,-5.63249 -15.03652,-10.91774 -10.40548,-13.16391 -14.58818,-30.54021 -10.59123,-43.99939 0.86242,-2.90408 1.39351,-5.45466 1.18021,-5.66797 -0.21331,-0.2133 -16.89392,1.74001 -37.06803,4.3407 C 427.4654,213.00609 416,214.85887 416,215.68304 c 0,2.02142 1.08811,2.08053 13.81242,0.75037 6.77183,-0.70791 18.02183,-1.53255 25,-1.83253 l 12.68758,-0.54542 -16,1.96886 c -8.8,1.08288 -19.97807,2.5329 -24.84016,3.22227 l -8.84015,1.25341 -0.30567,13 c -0.3353,14.26046 -2.6896,25.96554 -6.89015,34.2564 l -2.40333,4.7436 53.41018,0.35161 c 49.8273,0.32802 53.59329,0.23244 56.13973,-1.42486 z M 469.25,213.31067 c 0.9625,-0.25152 2.5375,-0.25152 3.5,0 0.9625,0.25153 0.175,0.45733 -1.75,0.45733 -1.925,0 -2.7125,-0.2058 -1.75,-0.45733 z m -349.72564,43.12154 c -3.09902,-11.89795 -1.08211,-30.53812 4.48507,-41.4507 2.99572,-5.87208 9.39767,-12.51608 14.38779,-14.93176 8.95163,-4.33341 18.70552,-1.28478 27.3811,8.55809 6.11753,6.94065 7.0079,5.83149 1.20844,-1.50538 -16.66816,-21.0868 -41.14033,-11.28172 -49.0522,19.65339 -2.86583,11.20532 -2.25628,27.85548 1.26596,34.5798 1.73019,3.30311 1.87809,1.06372 0.32384,-4.90344 z m 52.46409,-4.22819 c 17.35889,-9.95487 60.87063,-32.11365 77.01155,-39.21889 13.57413,-5.97534 31.9647,-13.19843 43,-16.8887 8.49318,-2.84017 9.87093,-3.6504 13,-7.64509 4.31715,-5.51144 10.56422,-10.08239 17.90879,-13.10378 5.35978,-2.20489 6.72045,-2.30107 32.87333,-2.32382 22.02897,-0.0192 27.97337,0.26508 30.87212,1.47626 3.65366,1.5266 12.85859,1.85514 17.29471,0.61729 2.05549,-0.57357 0.6898,-1.40106 -8.5,-5.15032 L 384.5,165.5 371,165.56879 c -10.59473,0.054 -15.54445,0.5714 -23,2.40425 -8.71292,2.14196 -12.48263,2.39106 -45.5,3.00659 -32.59052,0.60757 -36.66295,0.87108 -43,2.78233 -26.53542,8.00308 -66.06964,28.51236 -91.5,47.46773 -17.48771,13.03505 -43,36.0914 -43,38.86061 0,2.35257 3.38473,2.73572 18.48845,2.0929 l 11.98844,-0.51023 z m 24.49225,-38.59447 c -1.58626,-1.1599 -1.71783,-1.79369 -0.79352,-3.82233 1.34906,-2.96086 12.09616,-8.75822 21.66816,-11.68855 C 223.96072,196.07652 236,195.20566 236,196.75 c 0,0.4125 -3.0375,0.78233 -6.75,0.82184 -8.02808,0.0854 -15.46905,2.7233 -24.28114,8.60779 -6.25603,4.17762 -7.09619,6.10561 -2.88201,6.61361 1.6171,0.19493 5.78177,-1.84729 12.42288,-6.09179 10.20674,-6.52338 14.05579,-8.21347 15.04829,-6.60757 0.30801,0.49837 0.16388,0.90612 -0.32029,0.90612 -0.48417,0 -5.09403,2.70185 -10.24414,6.00411 -12.14317,7.78623 -18.39105,9.6194 -22.51289,6.60544 z m -98.060823,27.826 c 1.580563,-19.47957 8.441983,-36.38893 18.571003,-45.76662 3.30502,-3.05986 6.00912,-5.70345 6.00912,-5.87464 0,-0.69437 -18.7602,1.12859 -22.17731,2.155 -10.054506,3.02013 -18.800461,12.80697 -22.83324,25.55071 -2.409328,7.61357 -4.113591,29.41179 -2.071865,26.5 0.578484,-0.825 1.078568,-4.65 1.111298,-8.5 l 0.05951,-7 2.094908,4 c 1.152199,2.2 3.202577,5.35 4.556395,7 3.024273,3.68591 11.355843,10.47488 12.872786,10.48937 0.677403,0.006 1.384253,-3.33882 1.807396,-8.55382 z M 293,249.54695 c 0,-0.24918 -4.3875,-1.85964 -9.75,-3.57881 -6.57264,-2.10712 -12.68295,-3.30772 -18.75,-3.68413 -4.95,-0.3071 -8.775,-0.31082 -8.5,-0.008 0.275,0.30256 4.775,1.28142 10,2.17524 5.225,0.89382 12.65,2.46738 16.5,3.49681 7.1095,1.90095 10.5,2.41733 10.5,1.59916 z M 327.85517,239.75 c 0.7221,-24.61127 10.89124,-49.53084 23.56655,-57.75 l 3.85541,-2.5 -6.88856,-0.3052 c -22.4602,-0.99509 -36.45108,8.14104 -43.40092,28.34109 -2.49353,7.24759 -3.98337,19.79932 -2.97272,25.04497 0.69818,3.62384 0.77265,3.42938 0.98839,-2.58086 0.22021,-6.13505 1.61145,-14.24022 1.88813,-11 0.28542,3.34249 5.22425,12.17168 9.28687,16.60219 4.15517,4.53145 11.38112,10.39781 12.80762,10.39781 0.37722,0 0.76838,-2.8125 0.86923,-6.25 z M 260.5,235.65718 l 31,-5.21848 0.31864,-3.85813 0.31864,-3.85814 -4.31864,0.6959 c -2.37525,0.38275 -17.3132,2.66227 -33.19545,5.0656 -15.88225,2.40333 -29.21024,4.74013 -29.61776,5.19288 -0.40753,0.45275 -1.01421,2.28569 -1.34819,4.07319 -0.58461,3.12887 -0.48704,3.24768 2.61776,3.18783 1.77375,-0.0342 17.175,-2.41048 34.225,-5.28065 z m 261.53793,-23.92979 c 3.57449,-10.66914 5.73832,-14.59145 11.36596,-20.60275 l 4.09611,-4.37536 -8.5,0.57886 c -10.99903,0.74905 -16.97121,2.87836 -21.90161,7.80877 -4.9362,4.9362 -7.72034,10.58225 -9.60511,19.47856 -1.7225,8.1304 -1.98381,14.69096 -0.49328,12.38453 0.53316,-0.825 0.97627,-3.25727 0.98469,-5.40504 l 0.0153,-3.90503 3.85767,5.90503 c 4.22653,6.46968 6.83297,9.10906 12.14233,12.29578 l 3.5,2.10073 0.73301,-8.54751 c 0.43901,-5.11929 1.96509,-12.22503 3.80492,-17.71657 z M 146.9963,233.50394 c 1.2897,-1.37283 2.15565,-2.66065 1.92431,-2.86183 -0.34397,-0.29912 -17.53774,-5.49186 -24.16983,-7.2996 -1.21801,-0.332 -2.06555,0.35519 -2.79082,2.2628 -1.27377,3.35028 -0.61279,5.38681 1.75866,5.41848 0.97976,0.0131 5.38138,1.1075 9.78138,2.43203 10.14786,3.05481 10.66991,3.05667 13.4963,0.0481 z m 136.43807,-18.89662 c 6.17728,-1.25051 11.11737,-2.76253 11.355,-3.47543 0.31535,-0.94606 -0.54427,-1.08858 -3.43437,-0.5694 -7.40675,1.33055 -22.31793,5.31851 -24.07915,6.43992 -2.00778,1.27841 -1.93314,1.26734 16.15852,-2.39509 z M 422,207.06822 c -2.51869,-1.46246 -6.28945,-1.64048 -6.74038,-0.31822 -0.29876,0.87606 0.87003,1.2409 3.90705,1.21959 2.95324,-0.0207 3.85561,-0.30779 2.83333,-0.90137 z m 22.5,-1.06988 c 4.56383,-0.0661 4.84696,-1.52649 1.21775,-6.28102 -1.90926,-2.50126 -6.0731,-9.42341 -9.25298,-15.38254 C 430.1056,172.41763 425.35312,165 424.07696,165 c -0.45483,0 -1.09696,1.35 -1.42696,3 -0.47657,2.38284 -1.11944,3 -3.125,3 -2.12871,0 -2.525,0.46245 -2.525,2.94655 0,2.44658 0.89366,3.53972 5.26685,6.44248 2.89677,1.92277 7.05927,5.14648 9.25,7.16381 l 3.98315,3.66787 -4.5,-3.46178 c -2.475,-1.90397 -6.68826,-4.81979 -9.36281,-6.4796 -4.19052,-2.60061 -5.36564,-2.90095 -8.5,-2.17243 -2.00045,0.46496 -6.49139,0.85612 -9.97986,0.86924 l -6.34267,0.0239 4.68518,5.21104 c 3.9181,4.35788 7.33052,6.54913 20.84267,13.38396 9.02003,4.56259 17.04098,8.00934 18.15749,7.80262 1.1,-0.20367 2.9,-0.38335 4,-0.39928 z M 239,163.5 c 0,-3.30864 -0.18452,-3.5 -3.375,-3.5 -1.85625,0 -4.78125,0.28125 -6.5,0.625 -2.63043,0.52609 -3.125,1.08 -3.125,3.5 0,2.87179 0.007,2.875 6.5,2.875 h 6.5 z m 181,-2.03498 v -4.53499 l -10.16857,0.28499 -10.16858,0.28498 0.0852,3.75 c 0.0469,2.0625 0.12274,3.975 0.16858,4.25 C 399.9625,165.775 404.5,166 410,166 h 10 z m -58.16151,-1.4956 c -0.91384,-0.53337 -6.08884,-2.15461 -11.5,-3.60275 -9.73612,-2.6056 -10.10381,-2.62725 -35.33849,-2.08086 -36.79453,0.79667 -38.06775,2.54516 -2,2.74654 23.42779,0.13081 29.83479,0.47546 36,1.93657 8.57322,2.03179 15.53493,2.57431 12.83849,1.0005 z"
       id="path1" />
  </g>
</svg>
