<?xml version="1.0" encoding="UTF-8" standalone="no"?>
<!-- Created with Inkscape (http://www.inkscape.org/) -->

<svg
   version="1.1"
   id="svg1"
   width="220.64"
   height="172.8"
   viewBox="0 0 220.64 172.8"
   sodipodi:docname="SprintCar.svg"
   inkscape:version="1.3 (0e150ed6c4, 2023-07-21)"
   xmlns:inkscape="http://www.inkscape.org/namespaces/inkscape"
   xmlns:sodipodi="http://sodipodi.sourceforge.net/DTD/sodipodi-0.dtd"
   xmlns="http://www.w3.org/2000/svg"
   xmlns:svg="http://www.w3.org/2000/svg">
  <defs
     id="defs1" />
  <sodipodi:namedview
     id="namedview1"
     pagecolor="#505050"
     bordercolor="#eeeeee"
     borderopacity="1"
     inkscape:showpageshadow="0"
     inkscape:pageopacity="0"
     inkscape:pagecheckerboard="0"
     inkscape:deskcolor="#505050"
     inkscape:zoom="3.2720995"
     inkscape:cx="76.861967"
     inkscape:cy="84.807935"
     inkscape:window-width="1920"
     inkscape:window-height="1017"
     inkscape:window-x="1912"
     inkscape:window-y="1072"
     inkscape:window-maximized="1"
     inkscape:current-layer="g1" />
  <g
     inkscape:groupmode="layer"
     inkscape:label="Sprint Car"
     id="g1"
     style="display:inline">
    <path
       style="display:inline;fill:#000000"
       d="m 128.06269,172.35957 c -2.72202,-0.30943 -3.80619,-0.53224 -5.44469,-1.11892 -4.74197,-1.69791 -8.12107,-5.44086 -10.1647,-11.25917 -0.51706,-1.47211 -0.64925,-1.70827 -0.97665,-1.74483 -0.20826,-0.0233 -13.302646,-0.9745 -29.098647,-2.11387 -15.796,-1.13937 -29.029448,-2.10189 -29.407662,-2.13892 l -0.687662,-0.0674 -0.649571,1.30121 c -1.526634,3.05813 -3.592073,5.47976 -5.438196,6.37604 -3.222872,1.56468 -12.348619,2.66736 -20.456909,2.47184 -6.370913,-0.15363 -10.950579,-1.01374 -14.259427,-2.67809 -4.3613521,-2.19376 -8.194316,-7.52965 -10.0441123,-13.98245 -1.15269605,-4.02105 -1.53196445,-7.23504 -1.41387555,-11.98142 0.1428697,-5.74241 1.06648895,-9.73544 3.25598415,-14.07642 2.9542986,-5.85729 8.1871977,-10.48772 13.3163957,-11.78326 2.342369,-0.59164 7.691016,-0.94725 14.585035,-0.96971 l 3.6,-0.0117 2.708629,-3.05831 2.70863,-3.05831 3.81137,-13.280007 c 2.096254,-7.303974 3.811371,-13.361588 3.811371,-13.461335 0,-0.100846 -6.641278,-2.236313 -14.959873,-4.810266 l -14.959873,-4.628907 1.283715,-1.290418 c 0.858279,-0.862761 1.331197,-1.473621 1.42699,-1.843215 0.0788,-0.304038 1.923535,-10.524796 4.099407,-22.712796 2.175872,-12.188001 3.999669,-22.208423 4.052883,-22.267606 0.05321,-0.05918 4.452751,1.532179 9.776751,3.536359 l 9.68,3.643964 8.88,0.429698 c 4.884,0.236334 15.965249,0.787723 24.624998,1.22531 8.659748,0.437587 15.778083,0.762527 15.818523,0.72209 0.0404,-0.04044 1.2541,-6.2821 2.697026,-13.870362 C 101.68147,6.2701278 102.88972,0.03388317 102.92353,6.7172039e-5 102.97513,-0.05157283 187.46115,29.688509 187.63779,29.820499 c 0.0591,0.04416 -11.50753,49.997584 -11.60606,50.12374 -0.0281,0.03592 -5.90162,-2.078605 -13.05237,-4.698936 L 149.978,70.481066 135.77811,69.833225 c -7.80994,-0.356312 -14.22632,-0.617792 -14.25863,-0.581065 -0.0323,0.03673 -0.10832,2.551229 -0.16892,5.587781 l -0.11017,5.521005 8.23342,6.874108 8.23343,6.874108 1.25538,0.279894 c 0.69046,0.153942 1.33771,0.282141 1.43835,0.284887 0.12553,0.0034 0.21952,-0.823665 0.29942,-2.635006 0.064,-1.452 0.1515,-2.64 0.19434,-2.64 0.0428,0 3.6835,2.174213 8.09037,4.831586 l 8.01247,4.831585 12.49022,-0.04552 c 6.86961,-0.02504 12.51136,-0.0664 12.53722,-0.09193 0.0258,-0.02552 0.19539,-2.197252 0.37674,-4.826066 0.18136,-2.628813 0.35448,-4.805932 0.38471,-4.838041 0.0302,-0.03211 7.2587,4.491807 16.06325,10.053147 l 16.00829,10.111522 -0.0143,1.06686 c -0.008,0.58677 -0.10033,4.70285 -0.2055,9.14685 l -0.1912,8.08 0.65439,0.88 c 2.82098,3.79354 4.6202,8.4015 5.20003,13.31772 0.28479,2.41474 0.12796,6.89184 -0.31724,9.05621 -1.01274,4.92344 -2.88788,8.54106 -6.07206,11.71447 -2.37592,2.36789 -4.94504,3.98119 -8.02513,5.03946 -2.98811,1.02666 -9.79392,0.86457 -13.53646,-0.3224 -3.01738,-0.95698 -6.07377,-3.33813 -8.34277,-6.49963 l -0.52691,-0.73416 -9.98825,-0.11071 c -9.64764,-0.10693 -10.00882,-0.10024 -10.59143,0.19614 -0.33175,0.16877 -1.10718,0.46297 -1.72318,0.65378 -1.04476,0.32363 -1.40783,0.34474 -5.40456,0.31425 l -4.28457,-0.0327 -0.67547,1.34589 c -1.11682,2.22529 -2.47115,4.12439 -4.10201,5.75202 -2.3997,2.39495 -3.94097,3.15721 -7.77339,3.84448 -2.45108,0.43956 -7.98441,0.55445 -10.87531,0.22581 z m 0.46252,-2.10859 c 5.82844,-1.44543 10.65602,-8.64827 11.77736,-17.57205 0.23254,-1.85057 0.23254,-5.98943 0,-7.84 -0.70136,-5.58156 -2.97755,-10.86029 -6.0592,-14.05198 -1.63804,-1.69652 -3.82871,-3.02124 -5.85899,-3.54296 -1.22323,-0.31434 -3.58953,-0.31434 -4.81276,0 -4.61761,1.1866 -8.53618,5.57022 -10.63671,11.89906 -1.0687,3.21998 -1.46243,5.80886 -1.46243,9.61588 0,3.81859 0.39324,6.39461 1.47253,9.64608 1.43351,4.31861 3.86811,7.97039 6.63299,9.94914 2.8974,2.07361 5.77469,2.68359 8.94721,1.89683 z m -5.18721,-6.64796 c -3.95436,-1.40201 -6.76182,-6.13529 -7.39494,-12.46761 -0.32886,-3.28909 0.25974,-7.2494 1.49967,-10.09034 2.93544,-6.72573 8.66301,-8.58043 13.03011,-4.2194 4.59013,4.58375 5.76087,14.22075 2.55139,21.00178 -0.87114,1.84055 -1.48428,2.73473 -2.68764,3.91955 -1.9952,1.96447 -4.68258,2.67716 -6.99859,1.85602 z m 7.81005,-4.08409 c 0.73293,-1.03416 2.10995,-4.1896 2.10995,-4.83495 0,-0.0908 -0.162,-0.16532 -0.36,-0.16565 -0.87173,-0.001 -1.98677,-1.11731 -2.52074,-2.52261 -1.15053,-3.02794 0.18117,-6.97461 2.47922,-7.34753 0.31179,-0.0506 0.56152,-0.18488 0.56152,-0.30193 0,-0.51733 -0.88519,-2.97401 -1.45843,-4.04762 -0.776,-1.45335 -1.7155,-2.68369 -2.14157,-2.80456 -0.176,-0.0499 -0.788,-0.0911 -1.36,-0.0914 -3.19522,-0.002 -5.4406,3.1031 -6.25076,8.64383 -0.27072,1.85148 -0.10879,5.45634 0.3195,7.11242 1.072,4.14523 3.89143,6.73048 7.40036,6.7857 0.81736,0.0129 0.94058,-0.0301 1.22095,-0.4257 z m -2.52958,-1.27624 c -0.30774,-0.15607 -0.58426,-0.41618 -0.61448,-0.57803 -0.14477,-0.77527 2.10931,-2.10428 2.87445,-1.69479 0.43112,0.23073 0.3968,1.23699 -0.0657,1.9254 -0.29907,0.44518 -0.48021,0.55159 -1,0.58742 -0.37173,0.0256 -0.86665,-0.0738 -1.19431,-0.24 z m -2.68332,-2.48031 c -0.67014,-0.323 -1.3355,-1.84575 -1.02027,-2.33502 0.19346,-0.30028 1.26929,-0.51317 2.02312,-0.40034 1.27875,0.19139 1.45657,0.52174 0.88446,1.64316 -0.32168,0.63055 -1.02414,1.29746 -1.34604,1.27792 -0.0981,-0.006 -0.3417,-0.0895 -0.54127,-0.18572 z m -1.24642,-5.0459 c -0.45036,-0.31274 -0.71073,-0.95645 -0.71073,-1.75711 0,-0.7448 0.0462,-0.86592 0.37843,-0.99224 0.63619,-0.24187 2.31516,0.26161 2.7932,0.83762 0.14836,0.17876 0.11112,0.34149 -0.17546,0.76674 -0.63825,0.94711 -1.76066,1.50942 -2.28544,1.14499 z m 0.2619,-5.36009 c -0.21305,-0.1086 -0.45126,-0.39011 -0.52936,-0.62557 -0.27187,-0.81961 0.41709,-2.37189 1.05272,-2.37189 0.60137,0 2.18157,1.58986 2.18341,2.19675 7.5e-4,0.24708 -1.01864,0.768 -1.7594,0.89908 -0.32733,0.0579 -0.72095,0.017 -0.94737,-0.0984 z m 4.38737,-3.45687 c -0.84022,-0.38385 -1.68,-1.18419 -1.68,-1.60109 0,-0.41664 0.52532,-0.75746 1.37888,-0.89462 0.55331,-0.0889 0.72964,-0.045 1.10054,0.27404 0.73367,0.63107 0.74951,2.53176 0.021,2.51757 -0.0992,-0.002 -0.46841,-0.13509 -0.82041,-0.2959 z m 66.14611,24.13251 c 2.29463,-0.63588 3.95016,-1.65008 5.85389,-3.58621 2.54497,-2.58827 4.35932,-6.02973 5.42647,-10.29295 0.68232,-2.72582 0.80945,-3.93119 0.80518,-7.63394 -0.003,-2.96775 -0.0607,-3.82123 -0.36513,-5.44 -0.65388,-3.47714 -2.00381,-6.98386 -3.66477,-9.52 -0.9974,-1.52294 -2.60753,-3.42451 -2.75348,-3.25189 -0.0613,0.0725 -0.63791,1.76266 -1.28127,3.75583 l -1.16975,3.62394 0.7298,1.17606 c 0.83866,1.35146 1.55549,3.08207 1.9469,4.70027 l 0.27192,1.12421 2.16583,-0.0633 c 1.71162,-0.05 2.19493,-0.0173 2.30461,0.15579 0.0763,0.1205 0.13989,1.17308 0.14124,2.33908 l 0.002,2.12 h -2.08502 c -1.53137,0 -2.09995,0.0531 -2.14125,0.2 -0.0309,0.11 -0.13314,0.956 -0.22716,1.88 -0.22277,2.18936 -0.7962,4.16518 -1.80616,6.2233 -0.67032,1.36598 -1.03466,1.88341 -2.03831,2.89477 -1.4795,1.49085 -2.6267,2.09282 -4.20431,2.20611 -1.3116,0.0942 -2.44851,-0.16582 -3.42053,-0.78225 l -0.74255,-0.47092 -0.86566,0.79116 c -0.91407,0.83584 -2.60325,1.77784 -3.18749,1.77784 -0.57038,0 -0.57681,0.16573 -0.0358,0.92112 0.78772,1.09974 2.89685,3.00649 4.14738,3.74942 1.38263,0.82141 3.69446,1.71703 4.45048,1.72415 0.30976,0.003 1.09406,-0.14179 1.74289,-0.32159 z M 20.58447,161.52796 c 3.732468,-1.54958 7.800269,-5.74952 10.182956,-10.51374 3.262879,-6.52418 4.177429,-13.53161 2.716633,-20.81529 -1.738089,-8.66629 -6.771081,-15.66478 -13.041755,-18.13486 -1.640265,-0.64612 -3.964971,-1.0088 -5.031831,-0.78503 -1.159856,0.24329 -3.32424,1.27397 -4.663103,2.22057 -4.3038881,3.04294 -8.1246544,9.42004 -9.2383142,15.41932 -0.61407385,3.30802 -0.89328895,9.17185 -0.56397925,11.8442 1.32687105,10.76758 6.34325135,18.4204 13.69136445,20.88708 2.355322,0.79066 3.821718,0.76052 5.948029,-0.12225 z m -4.926467,-10.39163 c -3.415223,-0.54419 -6.4965381,-4.1729 -7.7504311,-9.12729 -1.255587,-4.96107 -0.826161,-10.16096 1.180131,-14.29011 1.9704171,-4.05531 4.8491051,-6.19979 7.9983061,-5.95833 4.127156,0.31645 7.454867,4.37293 8.759902,10.67833 0.428541,2.07054 0.385047,6.26513 -0.08782,8.46938 -1.46112,6.81098 -5.551196,10.95286 -10.100089,10.22802 z m 7.152382,-4.8974 c 0.631683,-1.02435 1.501424,-2.9872 1.727907,-3.89958 0.09032,-0.36388 0.04411,-0.43458 -0.348067,-0.53248 -1.262384,-0.31512 -2.251232,-1.51837 -2.706441,-3.29326 -0.714903,-2.78746 0.580997,-6.0527 2.619342,-6.59987 0.653513,-0.17543 0.680233,-0.20618 0.579124,-0.66653 -0.386027,-1.75757 -1.501256,-4.1741 -2.585068,-5.60144 -0.691711,-0.91095 -1.312664,-1.13294 -2.729695,-0.97586 -2.960349,0.32818 -5.082474,3.45429 -5.802517,8.54772 -0.115502,0.81703 -0.155752,2.25104 -0.103291,3.68 0.09858,2.6853 0.44066,4.258 1.313226,6.03759 1.234732,2.51824 3.965659,4.29094 6.726288,4.36618 0.627221,0.0171 0.659726,-0.009 1.309192,-1.06247 z m -5.943518,-3.6 c -0.321762,-0.32229 -0.56428,-0.76154 -0.637872,-1.15529 -0.103047,-0.55136 -0.06934,-0.67533 0.255137,-0.93831 0.313678,-0.25423 0.562002,-0.29097 1.542388,-0.22819 0.642684,0.0411 1.245706,0.15202 1.340048,0.24636 0.510397,0.51039 -0.75651,2.59543 -1.577033,2.59543 -0.242111,0 -0.611197,-0.20801 -0.922668,-0.52 z m -0.927247,-4.75585 c -0.547341,-0.43054 -0.849046,-1.6204 -0.561121,-2.21294 0.182598,-0.37578 0.301437,-0.42981 0.924518,-0.42034 0.393242,0.006 1.056986,0.16393 1.474986,0.351 0.595007,0.2663 0.76,0.42188 0.76,0.71666 0,0.5385 -1.46177,1.88147 -2.047904,1.88147 -0.08192,0 -0.329633,-0.14213 -0.550479,-0.31585 z m 0.140293,-5.36509 c -0.549743,-0.54975 -0.516153,-1.63269 0.07391,-2.38283 0.507865,-0.64564 0.983894,-0.53932 2.00249,0.44727 1.057208,1.02399 1.067962,1.31214 0.06779,1.8165 -0.822086,0.41456 -1.794685,0.46856 -2.144188,0.11906 z m 4.45809,-3.38412 c -0.769863,-0.40458 -1.52,-1.20135 -1.52,-1.61449 0,-0.46064 0.791368,-0.84045 1.751172,-0.84045 0.774607,0 1.126211,0.42804 1.249405,1.52102 0.12913,1.14564 -0.41936,1.49161 -1.480577,0.93392 z m 140.233237,31.29288 c 0.39228,-0.0904 1.07628,-0.35864 1.52,-0.59609 l 0.80676,-0.43173 h 11.12 11.12 l 0.76481,-0.37988 c 1.53952,-0.76468 2.19824,-1.57341 6.52701,-8.0134 l 4.16695,-6.19924 1.6955,-0.10374 c 0.93253,-0.0571 2.45831,-0.10436 3.39062,-0.10513 0.93231,-7.6e-4 2.07311,-0.0468 2.53511,-0.10228 l 0.84,-0.1009 v -1.51713 -1.51714 l -2.6,0.0993 c -1.43,0.0546 -9.02191,0.21914 -16.8709,0.36565 l -14.2709,0.26639 -1.1691,-0.88062 c -0.64301,-0.48435 -15.782,-12.05957 -33.6422,-25.72271 l -32.47311,-24.842095 -0.84629,0.456481 c -1.71829,0.926824 -1.83077,0.611507 1.23556,3.463454 1.49432,1.389836 2.71694,2.584843 2.71694,2.655571 0,0.187741 -1.6438,-0.07955 -15.679997,-2.549658 -1.628,-0.286497 -3.015449,-0.569149 -3.083219,-0.628114 -0.06777,-0.05897 -0.525523,-1.515316 -1.017228,-3.236335 l -0.894009,-3.129125 -1.200326,-0.34877 c -0.660179,-0.191823 -1.222388,-0.326668 -1.249353,-0.299656 -0.02697,0.02701 0.209604,1.578444 0.525709,3.447625 0.316106,1.869181 0.531407,3.441841 0.478447,3.494801 -0.05296,0.05296 -6.314443,-0.676499 -13.914408,-1.62102 l -13.818118,-1.71731 -1.260749,-6.097491 c -0.693412,-3.35362 -1.313599,-6.245771 -1.378195,-6.427002 -0.09362,-0.262662 -0.66223,-0.497349 -2.80283,-1.156835 -1.476961,-0.455029 -2.700433,-0.81075 -2.718828,-0.79049 -0.01839,0.02026 -1.813487,6.092321 -3.989096,13.49347 l -3.955652,13.456639 -2.626019,3.08094 -2.626019,3.08093 1.595125,0.53517 c 3.032811,1.01752 5.546667,2.55422 7.698454,4.70601 1.343726,1.34371 2.821053,3.36729 3.527816,4.83223 l 0.361142,0.74855 4.60423,-0.0286 c 3.353584,-0.0208 4.655837,0.0227 4.794221,0.15999 0.104496,0.10369 0.226083,0.69296 0.270195,1.30948 l 0.0802,1.12095 0.979253,0.0897 c 0.53859,0.0493 14.823488,0.78471 31.744219,1.63421 l 30.764965,1.54454 1.39504,-0.42363 c 3.1579,-0.95896 7.60691,-1.40003 10.75503,-1.06624 4.47663,0.47465 7.68001,1.9077 10.81052,4.83613 l 1.0035,0.93873 0.99856,-0.891 c 0.54922,-0.49005 1.05846,-0.87084 1.13165,-0.8462 0.0732,0.0247 1.79356,1.30481 3.82304,2.84481 l 3.68996,2.8 -0.0949,2.96 c -0.0522,1.628 -0.13637,3.338 -0.18705,3.8 l -0.0921,0.84 h -1.91891 c -1.90939,0 -1.91847,0.002 -1.83092,0.36 0.0484,0.198 0.17407,1.134 0.27928,2.08 l 0.1913,1.72 h 1.52368 1.52368 l -0.10527,3.96 c -0.0579,2.178 -0.10543,4.878 -0.10562,6 l -3.5e-4,2.04 h -1.74547 -1.74547 l -0.20031,1.12089 c -0.11017,0.61648 -0.17071,1.14978 -0.13453,1.1851 0.0866,0.0846 5.08801,0.35893 7.02578,0.38542 0.836,0.0114 1.84096,-0.0532 2.23324,-0.14359 z m 13.51551,-3.51991 c -4.49418,-0.15296 -8.32203,-0.30282 -8.50632,-0.33301 -0.29016,-0.0475 0.15733,-0.77339 3.33834,-5.4149 2.02038,-2.948 3.76022,-5.44427 3.86632,-5.54726 0.1376,-0.13357 3.17063,-0.26022 10.57788,-0.4417 5.71173,-0.13994 10.4072,-0.2322 10.43437,-0.20503 0.0527,0.0527 -5.16003,7.65016 -6.1709,8.99399 -1.41813,1.88524 -3.0776,3.01301 -4.64844,3.15908 -0.396,0.0368 -4.39706,-0.0582 -8.89125,-0.21117 z M 184.698,156.1931 c 0.44,-0.20825 1.0717,-0.6569 1.40377,-0.99701 l 0.60378,-0.61838 -0.70925,-1.50939 c -0.81111,-1.72618 -1.48407,-4.22886 -1.64005,-6.09929 l -0.10705,-1.28355 -2.2556,0.11454 c -1.24058,0.063 -2.27646,0.13338 -2.30196,0.15642 -0.0255,0.023 -0.0893,0.65114 -0.1419,1.39581 -0.089,1.26099 -0.11876,1.35078 -0.43364,1.308 -0.18596,-0.0253 -1.98102,-0.0801 -3.98902,-0.12195 l -3.65093,-0.076 -0.47517,0.74833 -0.47518,0.74833 2.5261,0.0983 c 1.38935,0.0541 3.51013,0.10809 4.71284,0.12 l 2.18674,0.0217 0.17559,0.81872 c 0.29241,1.36348 0.95757,3.18674 1.64374,4.50565 l 0.64973,1.24886 0.73873,-0.10021 c 0.4063,-0.0551 1.09873,-0.2706 1.53873,-0.47885 z m -40.68551,-30.39721 c -3.34161,-2.14709 -7.43581,-3.10398 -12.43449,-2.90617 -2.69835,0.10678 -4.46421,0.37859 -7.04902,1.08502 l -1.76902,0.48347 -14.87098,-0.6451 c -8.179036,-0.35481 -21.890977,-0.93956 -30.470977,-1.29945 -8.58,-0.35988 -15.823713,-0.68726 -16.09714,-0.72749 -0.486362,-0.0716 -0.499284,-0.0961 -0.596038,-1.13224 -0.130764,-1.40032 -0.382303,-1.7606 -1.343789,-1.92474 -0.419668,-0.0716 -2.533615,-0.13026 -4.69766,-0.13026 h -3.934627 l -0.268746,-0.64983 c -0.512778,-1.23992 -2.226061,-3.673 -3.440852,-4.88647 -2.040689,-2.03847 -4.678119,-3.53303 -7.061148,-4.00138 -0.572,-0.11241 -1.067536,-0.22396 -1.101192,-0.24788 -0.03366,-0.0239 0.926959,-1.27659 2.134699,-2.78373 l 2.195891,-2.74025 3.445668,-12.585229 c 1.895117,-6.921873 3.456313,-12.599035 3.469324,-12.615915 0.04389,-0.05694 2.894557,0.785471 3.007944,0.888895 0.06178,0.05635 0.65818,3.122709 1.325325,6.814121 0.667145,3.691412 1.229418,6.728086 1.249497,6.748164 0.02008,0.02008 11.915683,1.599837 26.434675,3.510573 l 26.398166,3.474066 8.24,5.607245 c 19.42454,13.21821 27.70075,18.97266 28.76,19.99679 0.70345,0.68013 0.87961,1.28 0.42691,1.45371 -0.42041,0.16133 -0.57506,0.0991 -1.95242,-0.78592 z m -32.73841,30.52304 c -1.03001,-5.84204 -1.09972,-9.896 -0.24417,-14.2 0.92698,-4.66337 3.1358,-9.24896 5.79583,-12.03241 0.89456,-0.93606 0.92695,-0.9968 0.57034,-1.06957 -0.20795,-0.0424 -3.90608,-0.19071 -8.21808,-0.32949 -4.312,-0.13879 -8.254,-0.29105 -8.76,-0.33838 l -0.919996,-0.086 v 0.71281 c 0,0.58194 -0.10407,0.83737 -0.56688,1.39132 -0.76339,0.91372 -0.89197,1.18402 -0.90179,1.89581 -0.0181,1.31222 0.4855,2.06723 3.354636,5.02923 2.60275,2.68699 2.97893,3.35411 2.88954,5.12427 -0.0463,0.91642 -0.1715,1.38485 -0.6065,2.26867 -0.7326,1.48847 -2.36582,3.16459 -3.36901,3.4575 -1.607016,0.46921 -13.268586,0.17718 -26.685945,-0.66828 -2.753272,-0.17353 -5.327272,-0.31548 -5.72,-0.31548 h -0.714052 v 3.2 3.2 l 0.52,0.01 c 0.286,0.005 9.88,0.75318 21.32,1.66194 11.439997,0.90876 21.151417,1.66041 21.580927,1.67035 l 0.78094,0.0181 z m -26.096077,-2.44912 c -3.432,-0.24734 -6.3444,-0.45447 -6.472,-0.46029 -0.157373,-0.007 -0.179617,-0.063 -0.06915,-0.17344 0.251883,-0.25188 14.141151,0.65127 14.141151,0.91953 0,0.26072 -0.03423,0.25944 -7.6,-0.2858 z m 20.084397,-0.91088 c 0.002,-0.066 0.25494,-0.3 0.56115,-0.52 1.95831,-1.40699 3.67184,-5.43202 4.23805,-9.95504 0.26334,-2.10363 0.0452,-3.51732 -1.05327,-6.82757 -0.47868,-1.44244 -0.87033,-2.85369 -0.87033,-3.13613 0,-0.70758 0.30578,-1.52126 0.57169,-1.52126 0.17046,0 0.18504,0.093 0.0644,0.41042 -0.33481,0.88062 -0.18104,2.02181 0.49537,3.67627 0.88724,2.17016 1.26625,3.84354 1.26683,5.59331 0.001,4.19621 -1.70388,9.27169 -3.85308,11.46811 -0.79916,0.81671 -1.43425,1.17964 -1.42076,0.81189 z m -13.419001,-1.81261 c -1.614032,-0.0678 -2.963288,-0.15195 -2.998347,-0.187 -0.03506,-0.0351 0.02551,-0.18156 0.134604,-0.32555 0.176066,-0.2324 0.42301,-0.24507 2.198347,-0.11281 1.1,0.0819 3.548001,0.19765 5.440001,0.25713 3.831546,0.12044 4.537506,0.0161 6.209106,-0.9178 0.76861,-0.4294 0.83201,-0.4424 0.66863,-0.13713 -0.26551,0.49611 -1.51393,1.23128 -2.42136,1.42589 -0.87561,0.18779 -4.722426,0.18665 -9.230981,-0.003 z m -14.825396,-1.11651 c -3.432,-0.24734 -6.4524,-0.45447 -6.712,-0.46029 -0.347646,-0.008 -0.424911,-0.0577 -0.293268,-0.18932 0.131644,-0.13164 1.899999,-0.0682 6.712,0.24088 3.593297,0.23078 6.731268,0.41921 6.973268,0.41873 0.284834,-5.7e-4 0.44,0.0838 0.44,0.23912 0,0.28838 0.65786,0.3114 -7.12,-0.24912 z M 104.778,147.89365 c 0,-0.0506 0.2459,-0.4141 0.54645,-0.80783 1.08636,-1.42321 1.66936,-3.82995 1.40191,-5.78737 -0.0826,-0.60473 -0.12281,-1.12952 -0.0893,-1.16618 0.12689,-0.13882 0.22768,0.12404 0.39903,1.04061 0.34597,1.85065 -0.17949,4.28911 -1.25448,5.82152 -0.52816,0.75289 -1.00361,1.1789 -1.00361,0.89925 z m 1.00795,-10.71681 c -0.0704,-0.12215 -1.007,-1.16781 -2.0814,-2.3237 -2.04704,-2.20233 -2.35122,-2.75205 -2.02891,-3.66668 0.13564,-0.3849 0.19521,-0.40233 1.26236,-0.36928 0.616,0.0191 1.34949,0.0749 1.62998,0.12415 0.46605,0.0817 0.49707,0.12344 0.36,0.48395 -0.28808,0.75772 -0.16217,1.66638 0.40497,2.92248 0.65325,1.44679 1.03685,3.8425 0.453,2.82908 z m 6.51682,-3.53216 c -0.28514,-0.34357 -0.39414,-1.65897 -0.18278,-2.20575 0.15967,-0.41305 0.22962,-0.44 1.14219,-0.44 h 0.9721 l -0.3962,0.52 c -0.21792,0.286 -0.60463,0.93898 -0.85937,1.45106 -0.40696,0.81807 -0.48899,0.89995 -0.67594,0.67469 z m 42.15093,23.07425 c 0.0361,-0.11 0.0893,-2.414 0.11817,-5.12 l 0.0525,-4.92 h -0.76318 -0.76319 v 1.72273 c 0,1.94871 -0.26909,6.41112 -0.46295,7.67727 l -0.12861,0.84 h 0.9408 c 0.61096,0 0.96382,-0.0701 1.00646,-0.2 z M 93.418003,146.21362 v -1.10531 l -8.2,-0.0742 c -5.499337,-0.0498 -8.431165,-0.13553 -8.901883,-0.26041 -0.899322,-0.23859 -2.210452,-1.00507 -6.218117,-3.63507 l -3.24,-2.12622 0.0118,0.91326 c 0.02675,2.06968 0.254893,5.79329 0.361488,5.89989 0.06296,0.063 5.890727,0.41591 12.950592,0.78434 7.059865,0.36844 12.926118,0.67869 13.036118,0.68946 0.142588,0.0139 0.2,-0.29772 0.2,-1.08574 z m 0.607374,-2.84464 0.04737,-0.98995 -6.927374,0.0891 c -7.967338,0.10243 -9.424782,0.004 -10.923839,-0.73812 -3.3312,-1.64903 -16.756792,-10.47802 -21.281913,-13.99548 -2.96843,-2.30746 -4.401618,-3.69788 -4.401618,-4.27031 0,-0.75858 0.382771,-0.8468 4.08,-0.94031 l 3.36,-0.085 v -0.72 -0.72 l -3.369595,0.0223 c -3.929442,0.026 -4.976991,0.18885 -5.669189,0.88105 -1.355308,1.35531 -0.09828,3.04136 5.575493,7.47839 4.369774,3.41727 18.067015,12.62608 20.929013,14.07081 1.508385,0.76143 3.913433,0.93075 13.014278,0.91622 l 5.52,-0.009 z m -0.832497,-1.85159 c 0.0916,-0.0916 0.398808,-16.12817 0.311064,-16.23793 -0.01736,-0.0217 -6.275746,-0.34682 -13.907532,-0.72247 l -13.875975,-0.68299 0.04878,4.60259 0.04878,4.6026 -0.953408,-1.3e-4 -0.953408,-1.3e-4 4.393408,2.90341 c 6.846113,4.5243 8.313462,5.37217 9.671805,5.58865 0.950603,0.15149 15.061089,0.10179 15.21648,-0.0536 z m 93.14512,-0.70313 c 3.014,-0.0585 5.48,-0.15984 5.48,-0.22508 0,-0.1179 -18.3241,-16.34764 -18.55812,-16.43701 -0.0674,-0.0257 -0.16968,1.16228 -0.2274,2.64 -0.0577,1.47772 -0.1461,3.12852 -0.1964,3.66844 l -0.0914,0.98169 -2.03228,0.9102 -2.03228,0.9102 -15.39104,-10.74619 C 144.82397,116.6061 137.898,111.71157 137.898,111.63976 c 0,-0.0718 0.468,-0.40433 1.04,-0.73893 1.0074,-0.58931 1.04005,-0.62865 1.04146,-1.25513 8e-4,-0.35572 0.14326,-3.52229 0.31659,-7.03683 0.17333,-3.51454 0.28608,-6.419137 0.25055,-6.454662 -0.0355,-0.03553 -0.66399,-0.203272 -1.39659,-0.372772 -1.0645,-0.246289 -3.98295,-0.453005 -14.53201,-1.029314 -7.26,-0.396623 -13.41068,-0.701345 -13.66817,-0.677159 -0.40679,0.03821 3.55815,3.125057 30.24,23.542917 l 30.70817,23.49895 4.48,-0.0981 c 2.464,-0.0539 6.946,-0.14596 9.96,-0.20451 z m -31.25721,-1.37533 c 0.051,-0.814 0.11168,-2.236 0.13493,-3.16 l 0.0423,-1.68 -3.24331,-2.44756 -3.2433,-2.44757 -0.7167,0.51469 c -0.39418,0.28308 -0.71669,0.56413 -0.71669,0.62456 0,0.0604 0.2385,0.42622 0.52999,0.81287 1.33163,1.76634 2.74655,4.58018 3.71969,7.39731 l 0.58341,1.68892 0.66346,0.0604 c 0.3649,0.0332 0.99873,0.073 1.40852,0.0884 l 0.74507,0.028 z m 43.45721,0.152 c 0,-1.19693 -0.15032,-1.552 -0.65707,-1.552 -0.23019,0 -0.28952,-0.23238 -0.37783,-1.48 -0.0613,-0.86655 -0.0336,-1.84475 0.0668,-2.36 0.0944,-0.484 1.08543,-3.59537 2.20234,-6.91415 1.11691,-3.31879 1.99811,-6.06325 1.95823,-6.0988 -0.0399,-0.0356 -0.50962,-0.1123 -1.04387,-0.17055 l -0.97136,-0.10591 -1.62715,5.08471 c -2.64179,8.2554 -2.46089,7.5443 -2.5134,9.87966 -0.0434,1.92846 -0.0703,2.08551 -0.3817,2.22445 -0.29888,0.13336 -0.33503,0.28498 -0.33503,1.40504 v 1.25555 h 1.84 1.84 z m -11.06869,-5.71961 c 1.93065,-2.65171 4.90012,-3.75055 7.43533,-2.75141 0.33365,0.13149 0.64635,0.19937 0.69488,0.15083 0.0485,-0.0485 0.61469,-1.67753 1.25811,-3.61999 l 1.16987,-3.53174 -0.90475,-0.27931 c -1.3802,-0.42609 -5.41275,-0.37379 -7.14475,0.0927 -3.41382,0.91937 -6.02561,3.00818 -7.57748,6.06021 -0.18839,0.37049 -0.34252,0.70993 -0.34252,0.7543 0,0.10375 4.53372,4.09194 4.64,4.08168 0.044,-0.004 0.39109,-0.435 0.77131,-0.95722 z m -15.58166,-4.86007 c 0.14714,-2.45412 0.74919,-18.36793 0.69654,-18.41134 -0.0254,-0.0209 -3.32219,-2.14767 -7.32619,-4.72604 -7.06255,-4.54793 -23.0268,-14.301471 -23.17142,-14.156851 -0.0613,0.06128 -0.80642,16.982471 -0.82279,18.684511 -0.005,0.52939 -0.0742,0.6352 -0.56877,0.87106 -0.30964,0.14765 -0.54364,0.32315 -0.52,0.39 0.0236,0.0668 6.69384,4.58381 14.82267,10.03773 l 14.77968,9.91621 1.00681,-0.49648 1.0068,-0.49648 z m -15.34586,-8.66018 -14.3962,-9.34051 0.0367,-1.16581 c 0.26822,-8.51756 0.5546,-16.694393 0.58584,-16.727253 0.055,-0.0578 28.76949,17.555643 28.98522,17.779493 0.12723,0.13201 0.0751,2.5972 -0.18982,8.98194 -0.20085,4.84 -0.36976,9.034 -0.37536,9.32 -0.006,0.286 -0.0642,0.51385 -0.13018,0.50633 -0.066,-0.008 -6.59829,-4.21691 -14.51621,-9.35419 z m 55.39524,9.82932 c 0.56388,-0.0982 1.05528,-0.26019 1.092,-0.36 0.0901,-0.24499 0.5299,-19.51251 0.4485,-19.65 -0.0908,-0.15342 -29.51805,-18.728796 -29.56824,-18.664393 -0.0227,0.02912 -0.12336,1.81694 -0.2237,3.97294 l -0.18245,3.92 0.83743,0.776193 c 1.72648,1.60021 8.62853,7.48733 10.96614,9.3536 4.75569,3.79677 6.35945,4.5927 13.45534,6.67774 2.26473,0.66546 2.70613,0.84919 3.22338,1.34175 0.99896,0.95127 1.159,2.39305 0.38746,3.49071 -0.24213,0.34449 -0.35087,0.36003 -2.52396,0.36054 -1.24901,2.9e-4 -3.39936,0.0473 -4.77856,0.10453 l -2.50762,0.10401 -0.50742,1.10086 c -0.27908,0.60548 -0.4721,1.1929 -0.42894,1.30539 0.0703,0.18322 9.00941,6.34467 9.20492,6.34467 0.0443,0 0.54184,-0.0803 1.10572,-0.17854 z m -0.63633,-13.82483 c -0.68052,-0.29763 -2.34632,-0.86819 -3.70179,-1.26793 -2.82805,-0.83401 -5.31259,-1.68099 -6.59603,-2.24859 -1.44587,-0.63943 -5.07411,-3.50108 -12.66368,-9.98805 l -4.0388,-3.452053 0.0187,-2.16 c 0.0103,-1.188 0.0637,-2.643469 0.1188,-3.234375 l 0.10013,-1.074375 14.16,8.968653 c 7.788,4.93275 14.18689,8.99511 14.21975,9.02746 0.10357,0.10194 -0.16935,5.99318 -0.2771,5.98151 -0.0565,-0.006 -0.65944,-0.25463 -1.33995,-0.55225 z m -13.01982,7.03029 c 0.1925,-0.50165 0.085,-0.6836 -0.66288,-1.12231 -0.66977,-0.39287 -0.91321,-0.44416 -2.05049,-0.43201 -1.46108,0.0156 -2.91651,0.34187 -4.01469,0.89998 l -0.74711,0.37969 2.38614,-0.0665 c 2.00509,-0.0559 2.56501,-0.0172 3.50615,0.24219 1.44073,0.39704 1.46783,0.39873 1.58288,0.0989 z m 0.56147,-1.69079 c 0.0966,-0.27714 0.17565,-0.52914 0.17565,-0.56 0,-0.0309 -0.594,-0.0552 -1.32,-0.0541 l -1.32,0.002 0.96,0.55315 c 0.528,0.30423 1.04296,0.55533 1.14435,0.558 0.10139,0.003 0.26339,-0.2219 0.36,-0.49903 z m 8.11929,-1.19764 4.82364,-0.0994 0.17264,-0.3789 c 0.29953,-0.65741 -0.12939,-1.33302 -1.18536,-1.86712 -0.267,-0.13505 -1.57538,-0.5402 -2.90751,-0.90034 -1.33214,-0.36014 -3.16569,-0.91254 -4.07456,-1.22755 -4.89465,-1.69648 -9.14417,-4.82178 -20.396,-15.00021 l -0.82351,-0.74496 h -11.89077 c -10.06422,0 -11.85479,0.0336 -11.6565,0.21877 0.12886,0.12032 3.47429,2.29153 7.43429,4.8249 3.96,2.53337 7.288,4.6855 7.39555,4.78249 0.15399,0.13889 0.14609,1.26419 -0.0372,5.2951 -0.128,2.8153 -0.234,5.18233 -0.23555,5.26007 -0.003,0.14327 24.27323,0.0248 33.38082,-0.16285 z m -32.38992,-7.27207 0.0463,-3.69359 -6.75749,-4.12916 -6.75748,-4.12916 2.91748,-0.0943 c 1.60462,-0.0519 6.40949,-0.13559 10.67749,-0.18604 l 7.76,-0.0917 2.16502,2.04879 c 7.90996,7.48532 13.53342,11.65625 17.87498,13.25792 0.638,0.23536 1.16,0.4916 1.16,0.5694 0,0.0809 -6.23464,0.14146 -14.56628,0.14146 h -14.56631 z m -128.116751,5.65358 c -0.959061,-2.32661 -3.962459,-4.93468 -7.770699,-6.7479 -2.883018,-1.37269 -3.420775,-1.47258 -8.386267,-1.55789 -4.280362,-0.0735 -6.72,0.0478 -6.72,0.33429 0,0.26832 0.844857,0.38398 4.686237,0.64157 2.08657,0.13991 4.477763,0.33148 5.313763,0.4257 3.534279,0.39834 6.314486,1.89627 10.8,5.81884 1.056,0.92347 2.010966,1.68047 2.122147,1.68221 0.154651,0.002 0.144036,-0.13779 -0.04518,-0.59682 z M 123.36979,88.118937 116.6502,82.518936 h -0.74688 c -0.63594,0 -0.73469,0.04159 -0.66476,0.28 0.0452,0.154 0.56322,2.512001 1.15122,5.240001 0.58801,2.728 1.08562,4.979716 1.10581,5.003815 0.0504,0.06014 9.96069,0.628592 11.4181,0.654935 l 1.17569,0.02125 z m -39.391787,4.296097 c 0,-0.389372 -1.00576,-5.502158 -1.103936,-5.611865 -0.15744,-0.175932 -19.557697,-6.075933 -19.655886,-5.977744 -0.07614,0.07614 -1.002164,9.410984 -0.940662,9.482367 0.01792,0.0208 19.86718,2.118613 21.500484,2.272323 0.11,0.01035 0.2,-0.06393 0.2,-0.165081 z m 10.560001,-2.062858 c -3.476001,-1.048318 -6.361663,-1.907654 -6.412582,-1.909636 -0.08028,-0.0031 0.66602,3.063683 0.883385,3.630127 0.06272,0.163449 1.300843,0.204118 5.964177,0.195905 L 100.858,92.258212 Z M 101.58004,90.1177 c 0.55771,-0.338795 0.95858,-0.703429 1.01141,-0.92 0.18596,-0.76232 8.44589,-37.810643 8.47536,-38.014617 0.0211,-0.145857 -2.84837,-1.320839 -8.84881,-3.623418 C 42.243976,24.545536 29.827532,19.814074 29.747406,19.943721 c -0.05149,0.08332 -1.881735,10.00283 -4.0672,22.043354 l -3.973573,21.891861 -0.966523,0.986712 -0.966523,0.986712 1.022208,0.31626 c 0.562214,0.173943 12.578208,3.886134 26.702208,8.249314 14.124,4.36318 31.692,9.798764 39.04,12.079075 7.348,2.280312 13.530577,4.1541 13.739067,4.163974 0.20849,0.0099 0.79482,-0.234603 1.30297,-0.543283 z M 60.340022,77.585051 c -21.75689,-6.746363 -39.55889,-12.308035 -39.56,-12.35927 -0.0011,-0.05124 0.235922,-0.166181 0.526738,-0.255435 0.475651,-0.145982 4.5063,1.045704 40.131689,11.865173 21.781613,6.615099 39.737841,12.079225 39.902741,12.142502 0.25849,0.09919 0.21277,0.168519 -0.33169,0.502989 -0.34732,0.213367 -0.7395,0.383938 -0.8715,0.379048 -0.132,-0.0049 -18.041089,-5.528644 -39.797978,-12.275007 z m 15.157981,0.904287 c -7.26,-2.293928 -13.222742,-4.190435 -13.250537,-4.21446 -0.02779,-0.02403 2.372888,-3.416923 5.334851,-7.539774 l 5.385386,-7.496094 -0.826667,-0.240037 c -0.454667,-0.13202 -0.823927,-0.312037 -0.820578,-0.400037 0.0033,-0.088 1.347295,-2.052019 2.986546,-4.364487 l 2.980455,-4.204487 0.519407,0.09744 c 0.907844,0.170313 1.772743,-0.346828 2.911089,-1.7406 l 0.499952,-0.612134 4.540048,1.470685 c 2.497026,0.808876 4.566261,1.494549 4.598299,1.523717 0.03204,0.02917 -0.09605,0.302696 -0.284639,0.60784 l -0.342889,0.554806 0.806354,-0.30639 c 0.443496,-0.168515 1.085109,-0.306391 1.425808,-0.306391 0.689776,0 10.979102,3.19154 11.760382,3.647831 1.63317,0.953822 1.76543,3.73541 0.30587,6.432791 -0.96589,1.78504 -4.501256,6.668835 -5.729136,7.914293 -1.41416,1.434397 -2.00212,1.71503 -3.840001,1.832806 l -1.44,0.09228 1.565351,0.463944 c 0.86095,0.255169 1.59764,0.516177 1.6371,0.580017 0.0862,0.139483 -7.133222,10.273175 -7.362451,10.33445 -0.088,0.02352 -6.1,-1.834081 -13.36,-4.128009 z m 15.988643,-1.345644 c 1.569779,-2.204044 2.395652,-3.495578 2.280687,-3.566631 -0.09913,-0.06126 -2.108277,-0.715723 -4.46478,-1.454356 -2.356502,-0.738633 -4.310405,-1.361504 -4.342005,-1.384158 -0.153131,-0.109779 0.662958,-0.997799 1.053303,-1.146142 0.256103,-0.09733 2.45003,-0.201684 5.181812,-0.246482 6.296261,-0.103251 5.762121,0.176309 9.438387,-4.939808 1.33088,-1.852135 2.57111,-3.700443 2.75607,-4.10735 0.43382,-0.95443 0.48512,-2.910118 0.0868,-3.309077 -0.38459,-0.385203 -11.429291,-3.904059 -12.265281,-3.907735 -0.979223,-0.0043 -1.864436,0.507239 -3.153626,1.822413 -0.925678,0.944335 -3.8901,4.749826 -4.043581,5.19083 -0.02397,0.06887 1.486213,0.607237 3.35596,1.196366 l 3.39954,1.071145 0.836893,-0.939515 c 0.87505,-0.98235 1.524022,-1.366851 2.155997,-1.277377 0.746692,0.105715 0.459879,1.640376 -0.495517,2.65141 -0.701774,0.742643 -1.009952,0.796371 -5.689292,0.991874 -2.464,0.102946 -4.804,0.25881 -5.2,0.346365 -1.388054,0.306896 -1.948657,0.907241 -5.451543,5.838013 -1.807292,2.544001 -3.440522,4.847628 -3.629399,5.119171 l -0.343413,0.493713 7.872177,2.495918 c 4.329698,1.372756 7.945916,2.500585 8.036042,2.506287 0.09013,0.0057 1.271276,-1.544491 2.624779,-3.444874 z m -11.55543,-13.59796 c 4.506267,-6.328739 8.196267,-11.543667 8.2,-11.58873 0.0037,-0.04506 -1.55344,-0.572264 -3.460384,-1.17156 -3.080168,-0.968005 -3.483484,-1.060476 -3.613332,-0.82845 -0.299783,0.535681 -1.143053,1.38659 -1.617062,1.63171 -0.269534,0.139381 -0.848862,0.297703 -1.287394,0.351826 l -0.797331,0.09841 -1.740249,2.4 c -0.957136,1.32 -1.806643,2.520373 -1.887791,2.667495 -0.123459,0.223829 -0.0106,0.312234 0.691393,0.541571 0.461415,0.150742 0.86466,0.296092 0.896099,0.323 0.03144,0.02691 -2.31824,3.347202 -5.221509,7.378429 -2.903269,4.031228 -5.292691,7.401505 -5.309828,7.489505 -0.03117,0.160063 6.492207,2.321219 6.794175,2.250871 0.088,-0.0205 3.846946,-5.215334 8.353213,-11.544073 z m 3.806787,-0.933977 1.76,-0.18349 -1.383421,-0.434666 c -0.760882,-0.239065 -1.450677,-0.434665 -1.532877,-0.434665 -0.0822,0 -0.391473,0.337003 -0.687273,0.748897 -0.418429,0.582652 -0.468847,0.719873 -0.227123,0.618155 0.170882,-0.07191 1.102694,-0.213311 2.070694,-0.314231 z m -60.019878,1.653388 c -0.274933,-0.07971 -0.570594,-0.235218 -0.657025,-0.34557 -0.149781,-0.191234 0.401511,-3.52526 3.39734,-20.54598 1.89573,-10.77054 3.752252,-20.243074 4.091778,-20.877485 0.136188,-0.254469 0.269536,-0.234438 1.707754,0.256527 5.065508,1.729213 56.92745,21.712267 57.752125,22.252615 0.870094,0.570107 0.175775,1.353684 -1.199485,1.353684 -1.111726,0 -1.377664,-0.09266 -13.338545,-4.647285 C 49.290018,31.74169 37.747046,27.687936 34.621225,27.365323 l -0.84398,-0.08711 -0.257176,0.780359 c -0.559777,1.698556 -2.144931,8.629795 -6.344142,27.74036 -1.516623,6.902136 -1.769971,7.866592 -2.172056,8.268677 -0.400335,0.400336 -0.521863,0.419006 -1.285746,0.197532 z m 37.378876,25.733792 c -5.52e-4,-0.11 0.187952,-2.267914 0.418897,-4.795365 0.230944,-2.52745 0.383696,-4.689707 0.339449,-4.805015 -0.08096,-0.21097 -5.028209,-1.822089 -5.167465,-1.682833 -0.08484,0.08484 2.412473,10.570955 2.649046,11.123213 0.130681,0.305064 0.276818,0.36 0.957645,0.36 0.536612,0 0.803097,-0.06642 0.802428,-0.2 z m 51.786009,-0.64 c -0.0498,-0.286 -0.17749,-1.262103 -0.28367,-2.169118 l -0.19307,-1.649118 -1.68381,-1.510882 c -1.20927,-1.085067 -1.79946,-1.510101 -2.09414,-1.50811 -0.61332,0.0041 -3.41756,0.311132 -3.4883,0.381874 -0.0716,0.07165 -1.32063,6.32061 -1.32146,6.611575 -4.2e-4,0.145559 0.71206,0.208567 2.75944,0.244036 1.518,0.0263 3.57801,0.064 4.57781,0.08378 l 1.8178,0.03596 z m 67.75608,-34.880001 c 3.63961,-15.639389 5.46201,-23.755171 5.34952,-23.823242 -0.3318,-0.200778 -82.01632,-28.9843038 -82.07469,-28.9210118 -0.0983,0.106602 -5.050856,25.9626498 -4.985486,26.0280208 0.0333,0.03332 2.425106,0.19636 5.315076,0.362306 2.88997,0.165946 5.55309,0.322466 5.91805,0.347823 0.62367,0.04333 1.0318,0.37319 6.78779,5.486104 3.36832,2.992 6.30971,5.560295 6.53643,5.707322 0.22672,0.147027 10.27622,3.767054 22.33222,8.044505 15.38153,5.457343 22.25408,7.824529 23.04,7.93591 3.78009,0.535718 6.71823,2.111401 7.76698,4.165319 1.07254,2.100527 0.19433,5.886498 -1.83655,7.917379 -2.36067,2.360675 -5.22909,2.883292 -15.12486,2.755706 -3.39107,-0.04372 -6.09357,-0.05148 -6.00557,-0.01725 2.01532,0.783972 21.03395,7.699584 21.21048,7.712618 0.20367,0.01504 1.28191,-4.413565 5.77061,-23.701506 z m -3.05933,4.88 c -0.18841,-0.242 -0.60971,-0.836 -0.93622,-1.32 -1.111,-1.646903 -3.31386,-2.704325 -6.37842,-3.061777 -1.43552,-0.16744 -3.42801,-0.833467 -23.72712,-7.931214 -12.188,-4.261632 -22.304,-7.846024 -22.48,-7.965314 -0.176,-0.11929 -3.18788,-2.772524 -6.69306,-5.896076 -6.11449,-5.448766 -6.40336,-5.682783 -7.12,-5.7679 -0.41082,-0.04879 -2.48817,-0.135751 -4.61635,-0.193238 -2.12818,-0.05749 -4.25552,-0.149514 -4.72743,-0.204502 l -0.85802,-0.09998 2.27886,-11.738096 c 1.25337,-6.4559529 2.30771,-11.7669428 2.34296,-11.8021998 0.0353,-0.03526 18.04775,6.3448867 40.02777,14.1780968 21.98001,7.83321 39.99102,14.2422 40.02446,14.2422 0.0334,0 0.0608,0.124244 0.0608,0.276098 0,0.294843 -2.53578,12.038184 -3.86173,17.883902 -0.43913,1.936 -1.04868,4.627016 -1.35457,5.980036 -0.57536,2.545025 -0.89674,3.520178 -1.22991,3.731907 -0.303,0.192558 -0.38606,0.158104 -0.75203,-0.311943 z m -61.35184,13.754493 c 0.15097,-2.311876 0.23964,-4.238269 0.19703,-4.280874 -0.12793,-0.127936 -7.71899,-0.535697 -7.82466,-0.420309 -0.10113,0.110429 -1.42229,5.333977 -1.42229,5.623401 0,0.102004 0.76564,0.16695 2.04,0.173044 l 2.04,0.0098 2.32,1.570797 c 1.276,0.863938 2.33247,1.561077 2.34771,1.549197 0.0153,-0.01188 0.15124,-1.913134 0.30221,-4.22501 z M 169.098,67.96466 c 2.79796,-0.346148 3.00757,-0.423326 4.0845,-1.503921 1.21749,-1.221621 1.86862,-2.515524 1.96405,-3.902868 0.11386,-1.65521 -0.0882,-1.726299 -3.00963,-1.058717 l -1.83892,0.420217 -26.72,-0.194706 c -14.696,-0.107089 -28.08461,-0.206187 -29.75248,-0.220218 l -3.03247,-0.02551 -0.47006,2.364131 c -0.25854,1.300272 -0.42566,2.408531 -0.37139,2.462799 0.0543,0.05427 9.58641,0.516519 21.18253,1.027226 20.3092,0.894439 21.36899,0.926192 28.84387,0.864188 4.268,-0.0354 8.372,-0.140081 9.12,-0.232621 z m -5.12,-12.283371 c -0.132,-0.05081 -9.096,-3.310364 -19.92,-7.243451 l -19.68,-7.151067 -17.36,-0.343923 C 97.470004,40.75369 89.057142,40.570467 88.322757,40.535685 c -0.734385,-0.03478 -1.274385,-0.0087 -1.2,0.05802 0.07438,0.06669 5.679246,2.230219 12.455247,4.807833 6.775996,2.577614 12.343266,4.704779 12.371716,4.727034 0.0284,0.02226 -0.0673,0.849369 -0.21285,1.83803 -0.17472,1.187123 -0.20966,1.831501 -0.10288,1.897494 0.0889,0.05496 11.02071,0.4806 24.29285,0.945866 13.27214,0.465265 24.31116,0.867331 24.53116,0.893481 0.75188,0.08937 3.76053,0.07043 3.52,-0.02216 z M 121.87133,40.144075 c -0.0293,-0.07417 -1.74533,-1.599902 -3.81333,-3.390508 -2.068,-1.790605 -4.74786,-4.111166 -5.95524,-5.156801 l -2.19524,-1.901155 -4.60476,-0.219926 c -2.53262,-0.12096 -5.432756,-0.261171 -6.444756,-0.31158 -1.012,-0.05041 -12.199519,-0.704677 -24.861152,-1.453928 -12.661632,-0.749251 -23.045501,-1.337923 -23.075264,-1.30816 -0.02976,0.02976 7.197755,2.924809 16.06115,6.433436 l 16.115265,6.379321 18.559997,0.509578 c 10.208,0.280269 18.944,0.519705 19.41333,0.532081 0.46934,0.01238 0.82934,-0.03818 0.8,-0.112358 z M 114.618,39.364921 c -2.70035,-0.04509 -11.7926,-0.343733 -23.919997,-0.785666 l -7.28,-0.26529 -7.68,-2.923379 c -9.163199,-3.487957 -13.722304,-5.276072 -16.96,-6.651839 l -2.4,-1.019812 0.96,-0.05347 c 1.50813,-0.084 15.308846,0.665737 39.360001,2.138274 6.423996,0.393311 11.911186,0.71513 12.193756,0.715154 0.43335,3.7e-5 1.12136,0.506295 4.39623,3.234914 2.13535,1.779179 4.41554,3.741179 5.06707,4.36 l 1.1846,1.12513 -0.62083,0.110779 c -0.34146,0.06093 -0.87283,0.09889 -1.18083,0.08437 -0.308,-0.01453 -1.712,-0.04565 -3.12,-0.06916 z"
       id="path1" />
  </g>
</svg>
